<svg width="46" height="33" viewBox="0 0 46 33" fill="none" xmlns="http://www.w3.org/2000/svg">
<path d="M44.9908 4.41602V28.041C44.9908 28.9361 44.6352 29.7946 44.0023 30.4275C43.3694 31.0604 42.5109 31.416 41.6158 31.416H4.49082C3.59572 31.416 2.73727 31.0604 2.10434 30.4275C1.4714 29.7946 1.11582 28.9361 1.11582 28.041V4.41602M44.9908 4.41602C44.9908 3.52091 44.6352 2.66247 44.0023 2.02953C43.3694 1.39659 42.5109 1.04102 41.6158 1.04102H4.49082C3.59572 1.04102 2.73727 1.39659 2.10434 2.02953C1.4714 2.66247 1.11582 3.52091 1.11582 4.41602M44.9908 4.41602L24.9737 18.2738C24.4094 18.6642 23.7395 18.8734 23.0533 18.8734C22.3671 18.8734 21.6972 18.6642 21.1329 18.2738L1.11582 4.41602" stroke="#81A1C7" stroke-width="2" stroke-linecap="round" stroke-linejoin="round"/>
</svg>
