<svg width="42" height="42" viewBox="0 0 42 42" fill="none" xmlns="http://www.w3.org/2000/svg">
<path d="M40.024 28.47L30.0593 24.0044C29.6078 23.811 29.1152 23.7332 28.626 23.7781C28.1369 23.823 27.6667 23.9893 27.258 24.2618C27.2166 24.2885 27.1771 24.3181 27.1399 24.3503L21.9318 28.78C21.8778 28.8095 21.8177 28.826 21.7561 28.8282C21.6946 28.8304 21.6335 28.8182 21.5775 28.7927C18.2299 27.1769 14.7621 23.7302 13.14 20.429C13.113 20.3739 13.0989 20.3133 13.0989 20.2518C13.0989 20.1904 13.113 20.1298 13.14 20.0746L17.5844 14.8012C17.6164 14.7622 17.6459 14.7214 17.673 14.6789C17.9417 14.2686 18.104 13.7979 18.1453 13.3092C18.1865 12.8205 18.1054 12.3292 17.9093 11.8797L13.4754 1.93191C13.2236 1.34468 12.7881 0.854953 12.2343 0.536232C11.6806 0.217511 11.0384 0.0869884 10.4041 0.164254C7.64763 0.526637 5.11741 1.88031 3.28628 3.97231C1.45515 6.06431 0.448409 8.75148 0.454187 11.5317C0.454187 28.0481 13.8909 41.4848 30.4073 41.4848C33.1874 41.4901 35.8743 40.4832 37.9662 38.6522C40.0581 36.8211 41.4119 34.2912 41.7747 31.5349C41.8518 30.9036 41.7231 30.2643 41.4076 29.7121C41.0922 29.1598 40.6069 28.7242 40.024 28.47ZM30.4073 38.9536C15.2873 38.9536 2.98544 26.6517 2.98544 11.5317C2.97839 9.36731 3.75959 7.27441 5.18308 5.64401C6.60657 4.01361 8.57498 2.95725 10.7205 2.6723H10.769C10.854 2.67389 10.9366 2.70112 11.0058 2.75043C11.0751 2.79974 11.1278 2.86882 11.1572 2.94863L15.6079 12.8859C15.6333 12.9411 15.6465 13.0012 15.6465 13.062C15.6465 13.1228 15.6333 13.1829 15.6079 13.2382L11.155 18.5243C11.122 18.5621 11.0917 18.6023 11.0643 18.6445C10.7857 19.0699 10.6216 19.56 10.588 20.0674C10.5544 20.5748 10.6523 21.0822 10.8724 21.5407C12.7434 25.3713 16.6036 29.2019 20.4764 31.0729C20.9375 31.2918 21.4474 31.3874 21.9565 31.3504C22.4656 31.3134 22.9563 31.1452 23.381 30.862C23.4211 30.8346 23.4611 30.805 23.4991 30.7734L28.705 26.3437C28.7565 26.3161 28.8132 26.2999 28.8715 26.2963C28.9297 26.2926 28.9881 26.3016 29.0425 26.3226L39.0093 30.7882C39.0908 30.8228 39.1592 30.8822 39.205 30.9579C39.2508 31.0336 39.2717 31.1218 39.2646 31.21C38.9811 33.3566 37.9258 35.3264 36.2957 36.7515C34.6657 38.1766 32.5725 38.9594 30.4073 38.9536Z" fill="#81A1C7"/>
</svg>
