<svg width="43" height="43" viewBox="0 0 43 43" fill="none" xmlns="http://www.w3.org/2000/svg">
<path d="M29.1152 26.8341C29.1152 30.0909 25.7086 32.7403 21.5215 32.7403C17.3344 32.7403 13.9277 30.0909 13.9277 26.8341C13.9277 26.6103 14.0166 26.3957 14.1748 26.2374C14.3331 26.0792 14.5477 25.9903 14.7715 25.9903C14.9952 25.9903 15.2099 26.0792 15.3681 26.2374C15.5263 26.3957 15.6152 26.6103 15.6152 26.8341C15.6152 29.1544 18.2646 31.0528 21.5215 31.0528C24.7783 31.0528 27.4277 29.1544 27.4277 26.8341C27.4277 24.1805 24.9408 23.265 21.146 22.1702C17.9355 21.2463 14.3032 20.198 14.3032 16.7091C14.3032 13.3341 17.4061 10.8028 21.5215 10.8028C24.5168 10.8028 27.067 12.1655 28.1765 14.3571C28.2326 14.4564 28.2679 14.566 28.2805 14.6793C28.293 14.7927 28.2824 14.9074 28.2493 15.0165C28.2163 15.1256 28.1615 15.2269 28.0882 15.3142C28.0149 15.4016 27.9247 15.4732 27.8229 15.5247C27.7212 15.5762 27.6101 15.6065 27.4963 15.6139C27.3825 15.6213 27.2685 15.6055 27.1609 15.5675C27.0534 15.5296 26.9547 15.4702 26.8708 15.3931C26.7868 15.3159 26.7194 15.2225 26.6726 15.1186C25.852 13.4986 23.8776 12.4903 21.5215 12.4903C18.3574 12.4903 15.9907 14.3044 15.9907 16.7091C15.9907 18.7784 18.1148 19.5419 21.6143 20.5502C25.1137 21.5585 29.1152 22.7123 29.1152 26.8341ZM42.6152 31.8966C42.6119 34.8046 41.4552 37.5926 39.3988 39.6489C37.3425 41.7052 34.5545 42.862 31.6465 42.8653C29.3559 42.8735 27.1216 42.1566 25.2635 40.8171C22.1406 41.426 18.9159 41.2584 15.873 40.329C12.83 39.3997 10.062 37.737 7.81215 35.4872C5.56234 33.2374 3.89967 30.4693 2.97031 27.4264C2.04094 24.3834 1.87335 21.1588 2.48225 18.0359C1.13927 16.1768 0.41999 13.9399 0.42772 11.6466C0.431069 8.73849 1.58778 5.95049 3.64409 3.89418C5.70041 1.83786 8.48841 0.681154 11.3965 0.677804C13.687 0.669571 15.9214 1.38655 17.7794 2.72601C20.9023 2.1171 24.127 2.2847 27.17 3.21406C30.2129 4.14343 32.981 5.8061 35.2308 8.05591C37.4806 10.3057 39.1433 13.0738 40.0726 16.1167C41.002 19.1597 41.1696 22.3844 40.5607 25.5073C41.9037 27.3663 42.6229 29.6032 42.6152 31.8966ZM40.9277 31.8966C40.9341 29.8449 40.2548 27.85 38.9976 26.2287C38.9223 26.1315 38.8691 26.019 38.8418 25.8992C38.8144 25.7793 38.8137 25.6549 38.8394 25.5347C39.4664 22.6355 39.3561 19.6254 38.5187 16.7799C37.6813 13.9344 36.1435 11.3444 34.0461 9.24697C31.9487 7.14956 29.3586 5.61176 26.5131 4.77435C23.6676 3.93693 20.6575 3.82664 17.7583 4.45359C17.6381 4.47937 17.5137 4.47857 17.3939 4.45125C17.274 4.42392 17.1615 4.37072 17.0644 4.29538C15.2783 2.91535 13.0506 2.23344 10.7981 2.37728C8.54563 2.52111 6.42274 3.48083 4.82674 5.07683C3.23075 6.67282 2.27103 8.79571 2.12719 11.0482C1.98336 13.3007 2.66526 15.5284 4.0453 17.3144C4.12064 17.4116 4.17383 17.5241 4.20116 17.6439C4.22849 17.7638 4.22929 17.8882 4.2035 18.0084C3.57656 20.9076 3.68684 23.9177 4.52426 26.7632C5.36168 29.6087 6.89948 32.1987 8.99688 34.2961C11.0943 36.3935 13.6843 37.9313 16.5298 38.7688C19.3753 39.6062 22.3854 39.7165 25.2846 39.0895C25.4048 39.0637 25.5292 39.0645 25.6491 39.0919C25.769 39.1192 25.8814 39.1724 25.9786 39.2477C27.352 40.3069 28.9947 40.96 30.7204 41.1331C32.4461 41.3061 34.1857 40.9922 35.7421 40.2268C37.2984 39.4615 38.6092 38.2754 39.5258 36.803C40.4423 35.3307 40.928 33.6309 40.9277 31.8966Z" fill="#81A1C7"/>
</svg>
