<svg width="95" height="96" viewBox="0 0 95 96" fill="none" xmlns="http://www.w3.org/2000/svg">
<path d="M82.5554 23.1701H53.9477L58.7575 18.3604C59.0322 18.0871 59.1858 17.7146 59.1858 17.3276V10.0239C59.1858 9.63684 59.0322 9.26428 58.7582 8.99104L52.9157 3.14854C52.4982 2.73106 51.8698 2.60639 51.3233 2.83181C50.7769 3.05868 50.4217 3.59141 50.4217 4.18137V11.4843H44.5792V4.18137C44.5792 3.59139 44.224 3.05794 43.6783 2.83181C43.1318 2.60567 42.5041 2.73107 42.0859 3.14854L36.2434 8.99104C35.9687 9.26502 35.8158 9.63684 35.8158 10.0239V17.3268C35.8158 17.7138 35.9694 18.0864 36.2434 18.3596L41.0532 23.1701H12.4455C10.0297 23.1701 8.06348 25.1366 8.06348 27.5522V74.2933C8.06348 76.7091 10.0299 78.6754 12.4455 78.6754H41.658V81.5962H38.7372C33.1004 81.5962 28.5126 86.1843 28.5126 91.8208C28.5126 92.6282 29.1656 93.2813 29.9731 93.2813H65.0284C65.8359 93.2813 66.4889 92.6282 66.4889 91.8208C66.4889 86.1841 61.9009 81.5962 56.2643 81.5962H53.3434V78.6754H82.5559C84.9718 78.6754 86.938 76.7089 86.938 74.2933L86.9373 27.5522C86.9373 25.1364 84.9716 23.1709 82.5552 23.1709L82.5554 23.1701ZM53.3428 49.4621C53.3428 52.6845 50.7227 55.3046 47.5004 55.3046C44.278 55.3046 41.6579 52.6845 41.6579 49.4621C41.6579 46.2397 44.278 43.6196 47.5004 43.6196C50.722 43.6196 53.3428 46.2397 53.3428 49.4621ZM38.736 49.4621C38.736 54.2951 42.6667 58.2255 47.4994 58.2255C52.3322 58.2255 56.2628 54.2949 56.2628 49.4621C56.2628 46.8754 55.1292 44.5546 53.3419 42.9478V39.3927C53.4122 39.4333 53.4847 39.4659 53.555 39.5094C54.1276 39.8587 54.8698 39.7725 55.3503 39.2963L56.2636 38.3816L58.5799 40.698L57.6652 41.6112C57.1891 42.0874 57.0999 42.8296 57.4522 43.4051C58.1356 44.5241 58.6176 45.6867 58.8851 46.8651C59.0358 47.5298 59.6273 48.0016 60.3093 48.0016H62.1061V50.9225H60.3093C59.6273 50.9225 59.0373 51.3943 58.8851 52.059C58.6075 53.2802 58.1284 54.4501 57.4667 55.5322C57.1159 56.1092 57.2021 56.8499 57.6797 57.3275L58.5799 58.2256L56.2636 60.5419L55.3656 59.6439C54.8879 59.1634 54.1429 59.0771 53.5703 59.4308C52.4882 60.0926 51.3183 60.5702 50.097 60.8492C49.4324 60.9978 48.9605 61.5893 48.9605 62.2713V64.0681H46.0397V62.2713C46.0397 61.5893 45.5678 60.9993 44.9046 60.8471C43.7261 60.5767 42.5621 60.0947 41.4458 59.4141C40.8704 59.0619 40.1282 59.1467 39.6505 59.6272L38.7358 60.5419L36.4195 58.2256L37.3342 57.3109C37.8104 56.8347 37.8995 56.0925 37.5472 55.5156C36.8652 54.3979 36.3832 53.2339 36.1143 52.0568C35.9636 51.3943 35.3721 50.9225 34.6901 50.9225H32.8933V48.0016H34.6901C35.3721 48.0016 35.9621 47.5297 36.1143 46.8651C36.3919 45.6453 36.8696 44.4755 37.5327 43.3919C37.8835 42.8149 37.7958 42.0742 37.3197 41.5965L36.4195 40.6978L38.7358 38.3814L39.6338 39.2794C40.11 39.7571 40.8537 39.8419 41.4291 39.4925C41.5038 39.4476 41.5828 39.4121 41.6567 39.3686V42.9468C39.8694 44.5544 38.7359 46.8753 38.7359 49.462L38.736 49.4621ZM41.6577 36.118C41.412 36.226 41.1597 36.3137 40.9198 36.4347L39.7689 35.2837C39.1977 34.7126 38.2743 34.7126 37.7032 35.2837L33.3211 39.6658C32.75 40.2369 32.75 41.1603 33.3211 41.7315L34.4721 42.8839C34.1126 43.592 33.8118 44.3269 33.5755 45.0808L31.433 45.08C30.6256 45.08 29.9725 45.7345 29.9725 46.5405V52.383C29.9725 53.1904 30.6256 53.8435 31.433 53.8435H33.5783C33.816 54.5842 34.1204 55.3126 34.4864 56.0273L33.321 57.1928C32.7499 57.7639 32.7499 58.6873 33.321 59.2585L37.7031 63.6405C38.2742 64.2117 39.1976 64.2117 39.7687 63.6405L40.9342 62.4751C41.6481 62.8418 42.3773 63.1455 43.1181 63.3833V65.5285C43.1181 66.336 43.7711 66.989 44.5785 66.989H50.421C51.2285 66.989 51.8815 66.336 51.8815 65.5285V63.386C52.6367 63.1498 53.3717 62.8483 54.0799 62.4895L55.2308 63.6404C55.802 64.2116 56.7254 64.2116 57.2965 63.6404L61.6786 59.2584C62.2497 58.6872 62.2497 57.7639 61.6786 57.1927L60.5276 56.0417C60.8871 55.3336 61.1879 54.5987 61.4242 53.8434L63.5667 53.8441C64.3741 53.8441 65.0271 53.1911 65.0271 52.3836V46.5411C65.0271 45.7351 64.3741 45.0807 63.5667 45.0807H61.4214C61.1837 44.3414 60.8793 43.6115 60.5132 42.8955L61.6787 41.7315C61.9527 41.4575 62.1063 41.085 62.1063 40.6979C62.1063 40.3109 61.9527 39.9383 61.6787 39.6651L57.2966 35.283C56.7255 34.7119 55.8021 34.7119 55.2309 35.283L54.0655 36.447C53.8278 36.3246 53.5835 36.2383 53.3421 36.1303L53.3429 31.9345H78.1728V69.9104H16.8272V31.9345H41.6571L41.6577 36.118ZM38.736 10.6294L41.6569 7.70851L41.6576 12.9459C41.6576 13.7519 42.3107 14.4064 43.1181 14.4064H51.8815C52.6889 14.4064 53.3419 13.7519 53.3419 12.9459L53.3427 7.70795L56.2635 10.6288V16.7229L50.8493 22.1372C50.5746 22.4112 50.4209 22.7837 50.4209 23.1707V41.2094C49.5055 40.8847 48.5248 40.6977 47.5001 40.6977C46.4745 40.6977 45.4945 40.8847 44.5792 41.2087L44.5785 23.1708C44.5785 22.7837 44.4248 22.4112 44.1508 22.1379L38.7358 16.7229L38.736 10.6294ZM63.4193 90.3589H31.5814C32.2605 87.03 35.2097 84.5164 38.7372 84.5164H56.2649C59.7917 84.5164 62.7423 87.03 63.4199 90.3589H63.4193ZM50.4209 81.5947H44.5784V78.6739H50.4209V81.5947ZM84.016 74.2918C84.016 75.0978 83.3615 75.7523 82.5555 75.7523H12.4448C11.6388 75.7523 10.9843 75.0978 10.9843 74.2918V27.5507C10.9843 26.7462 11.6388 26.0902 12.4448 26.0902H41.6573V29.0111L15.3653 29.0119C14.5579 29.0119 13.9048 29.6663 13.9048 30.4723V71.3705C13.9048 72.178 14.5579 72.831 15.3653 72.831H79.6332C80.4406 72.831 81.0936 72.178 81.0936 71.3705L81.0943 30.4723C81.0943 29.6663 80.4413 29.0119 79.6339 29.0119H53.3419V26.091H82.5544C83.3604 26.091 84.0148 26.7469 84.0148 27.5514L84.016 74.2918Z" fill="#284465"/>
</svg>
