<svg width="95" height="96" viewBox="0 0 95 96" fill="none" xmlns="http://www.w3.org/2000/svg">
<path d="M82.5554 5.64148H12.4447C8.40976 5.64148 5.14172 8.90952 5.14172 12.9444V57.4033C5.14172 61.4382 8.40976 64.7062 12.4447 64.7062H36.3264L33.6425 81.1568H22.1037C19.6938 81.1568 17.7216 83.129 17.7216 85.5389V85.9955C17.7216 88.4054 19.6938 90.3776 22.1037 90.3776H72.8971C75.307 90.3776 77.2792 88.4054 77.2792 85.9955V85.5389C77.2792 83.129 75.307 81.1568 72.8971 81.1568H61.3947L58.7108 64.7062H82.5554C86.5903 64.7062 89.8583 61.4382 89.8583 57.4033L89.8591 12.9444C89.8591 8.90952 86.5903 5.64148 82.5554 5.64148ZM74.3579 85.5194V85.976C74.3579 86.7791 73.7006 87.4365 72.8975 87.4365H22.104C21.301 87.4365 20.6436 86.7791 20.6436 85.976V85.5194C20.6436 84.7163 21.301 84.059 22.104 84.059H72.8975C73.7006 84.059 74.3579 84.7163 74.3579 85.5194ZM58.4371 81.1373H36.6001L39.284 64.7237H55.7528L58.4371 81.1373ZM86.9371 57.4022C86.9371 59.8121 84.9649 61.7843 82.555 61.7843L12.4443 61.7835C10.0344 61.7835 8.06223 59.8114 8.06223 57.4015V12.9444C8.06223 10.5346 10.0344 8.56237 12.4443 8.56237H82.555C84.9649 8.56237 86.9371 10.5346 86.9371 12.9444V57.4022Z" fill="#284465"/>
<path d="M22.3399 37.0991H16.0408C15.2377 37.0991 14.5803 37.7565 14.5803 38.5596V57.439C14.5803 58.242 15.2377 58.8994 16.0408 58.8994H22.3399C23.143 58.8994 23.8004 58.242 23.8004 57.439V38.5596C23.8004 37.7565 23.1437 37.0991 22.3399 37.0991ZM20.8795 55.9785H17.5019V40.0215H20.8795V55.9785Z" fill="#284465"/>
<path d="M34.92 30.7998H28.6209C27.8178 30.7998 27.1604 31.4572 27.1604 32.2603V57.4186C27.1604 58.2216 27.8178 58.879 28.6209 58.879H34.92C35.7231 58.879 36.3804 58.2216 36.3804 57.4186L36.3812 32.2603C36.3812 31.4572 35.7238 30.7998 34.92 30.7998ZM33.4595 55.9785H30.082V33.7222H33.4595V55.9785Z" fill="#284465"/>
<path d="M47.5001 37.0991H41.2009C40.3979 37.0991 39.7405 37.7565 39.7405 38.5596V57.439C39.7405 58.242 40.3979 58.8994 41.2009 58.8994H47.5001C48.3031 58.8994 48.9605 58.242 48.9605 57.439V38.5596C48.9605 37.7565 48.3031 37.0991 47.5001 37.0991ZM46.0389 55.9785H42.6614V40.0215L46.0389 40.0208V55.9785Z" fill="#284465"/>
<path d="M69.5188 30.7998C61.7773 30.7998 55.4789 37.0989 55.4789 44.8398C55.4789 52.5813 61.778 58.8797 69.5188 58.8797C77.2604 58.8797 83.5588 52.5806 83.5588 44.8398C83.5595 37.0989 77.2604 30.7998 69.5188 30.7998ZM78.7208 38.6145L70.9793 42.5037V33.8496C74.193 34.2505 76.9682 36.04 78.7208 38.6145ZM69.5188 55.9776C63.3843 55.9776 58.3998 50.9932 58.3998 44.8585C58.3998 39.2168 62.6172 34.5614 68.0584 33.8307V44.8585C68.0584 45.3695 68.3142 45.8442 68.752 46.1001C68.989 46.2465 69.2449 46.319 69.5189 46.319C69.7377 46.319 69.9755 46.2639 70.1762 46.1726L80.0357 41.2244C80.4372 42.3565 80.6561 43.5799 80.6561 44.8578C80.638 50.9931 75.6534 55.9776 69.5188 55.9776Z" fill="#284465"/>
<path d="M44.3587 24.5209C43.6281 24.5209 42.9164 24.7036 42.2953 25.0138L35.8867 18.6051C36.1969 17.9847 36.3795 17.2904 36.3795 16.5417C36.3795 14.0041 34.316 11.9407 31.7785 11.9407C29.241 11.9407 27.1775 14.0041 27.1775 16.5417C27.1775 17.0896 27.2688 17.6368 27.4515 18.1304L18.5597 25.269C17.8291 24.7942 16.971 24.5203 16.0585 24.5203C13.521 24.5203 11.4575 26.5837 11.4575 29.1213C11.4575 31.6588 13.521 33.7223 16.0585 33.7223C18.5961 33.7223 20.6595 31.6588 20.6595 29.1213C20.6595 28.5733 20.5682 28.0261 20.3856 27.5325L29.2773 20.394C30.0079 20.8687 30.8661 21.1427 31.7785 21.1427C32.5091 21.1427 33.2208 20.96 33.842 20.6498L40.2506 27.0584C39.9404 27.6789 39.7577 28.3732 39.7577 29.1219C39.7577 31.6594 41.8212 33.7229 44.3587 33.7229C46.8963 33.7229 48.9597 31.6594 48.9597 29.1219C48.9597 26.5836 46.8963 24.5209 44.3587 24.5209ZM16.0406 30.8013C15.1092 30.8013 14.3605 30.0526 14.3605 29.1212C14.3605 28.1899 15.1092 27.4412 16.0406 27.4412C16.5334 27.4412 16.9719 27.66 17.2821 27.9891C17.3003 28.0253 17.3184 28.0442 17.3553 28.0804C17.3735 28.0985 17.3916 28.1355 17.4285 28.1536C17.6112 28.4276 17.7388 28.7559 17.7388 29.1212C17.7206 30.0526 16.9719 30.8013 16.0406 30.8013ZM30.519 17.6739C30.5009 17.6376 30.4827 17.6188 30.4458 17.5825C30.4276 17.5463 30.3907 17.5274 30.3726 17.4912C30.1899 17.2172 30.0805 16.8889 30.0805 16.5417C30.0805 15.6104 30.8292 14.8616 31.7606 14.8616C32.6919 14.8616 33.4406 15.6104 33.4406 16.5417C33.4406 17.4731 32.6919 18.2218 31.7606 18.2218C31.2677 18.2218 30.8299 18.0029 30.519 17.6739ZM44.3589 30.8013C43.4276 30.8013 42.6788 30.0526 42.6788 29.1212C42.6788 28.1899 43.4276 27.4412 44.3589 27.4412C45.2903 27.4412 46.039 28.1899 46.039 29.1212C46.0383 30.0526 45.2903 30.8013 44.3589 30.8013Z" fill="#284465"/>
</svg>
