<svg width="42" height="50" viewBox="0 0 42 50" fill="none" xmlns="http://www.w3.org/2000/svg">
<mask id="path-1-inside-1_541_221" fill="white">
<path d="M0.0908203 29.0909H41.909V41C41.909 45.9705 37.8796 50 32.909 50H9.09081C4.12025 50 0.0908203 45.9705 0.0908203 41V29.0909Z"/>
</mask>
<path d="M0.0908203 29.0909H41.909H0.0908203ZM46.909 41C46.909 48.732 40.641 55 32.909 55H9.09082C1.35883 55 -4.90918 48.732 -4.90918 41H5.09082C5.09082 43.2091 6.88168 45 9.09082 45H32.909C35.1181 45 36.909 43.2091 36.909 41H46.909ZM9.09082 55C1.35883 55 -4.90918 48.732 -4.90918 41V29.0909H5.09082V41C5.09082 43.2091 6.88168 45 9.09082 45V55ZM46.909 29.0909V41C46.909 48.732 40.641 55 32.909 55V45C35.1181 45 36.909 43.2091 36.909 41V29.0909H46.909Z" fill="#81A1C7" mask="url(#path-1-inside-1_541_221)"/>
<path d="M19.3431 40.7476C20.1242 41.5286 21.3905 41.5286 22.1715 40.7476L34.8995 28.0196C35.6805 27.2386 35.6805 25.9723 34.8995 25.1912C34.1184 24.4102 32.8521 24.4102 32.071 25.1912L20.7573 36.5049L9.44362 25.1912C8.66257 24.4102 7.39624 24.4102 6.61519 25.1912C5.83414 25.9723 5.83414 27.2386 6.61519 28.0196L19.3431 40.7476ZM18.7573 0.666687L18.7573 39.3334H22.7573L22.7573 0.666687L18.7573 0.666687Z" fill="#81A1C7"/>
</svg>
