<svg width="14" height="16" viewBox="0 0 14 16" fill="none" xmlns="http://www.w3.org/2000/svg">
<path d="M12.9389 6.25768C12.6699 5.15867 11.8896 3.62675 9.73719 2.59421C7.61163 1.59512 1.45007 -0.0700671 0.804338 0.362879C0.750565 0.396221 0.696694 0.462776 0.642921 0.496117C0.589147 0.562675 0.535276 0.662572 0.481503 0.762469C0.373858 1.0955 0.454566 1.32865 0.562211 1.62833C0.83127 2.36096 1.69223 4.62564 2.28423 11.5859C2.47259 14.0171 3.49495 15.0828 4.30215 15.5156C4.81333 15.8153 5.35148 15.9152 5.8896 15.9152C6.83125 15.9152 7.71916 15.5488 8.3381 15.016C9.03764 14.4165 9.44128 13.3842 9.522 12.0854C9.19916 11.6524 8.87624 11.3194 8.66104 11.0863C8.63411 11.053 8.60727 11.0197 8.5534 10.9864L8.52646 10.9531C8.36504 10.7199 8.17668 10.4868 7.98834 10.2204H7.96141L6.02421 10.5201H5.97043C5.70137 10.5201 5.48607 10.287 5.45926 9.95395C5.43232 9.58757 5.62067 9.25454 5.91668 9.22132L7.1274 9.02152C6.02422 7.62283 4.81347 6.22401 4.30222 5.99086C4.03316 5.85763 3.89868 5.49138 4.00622 5.125C4.11386 4.79197 4.40976 4.62552 4.70576 4.75862C5.16318 4.99176 5.83578 5.65783 6.56226 6.49035L6.69674 5.05831C6.72368 4.69193 6.99274 4.45878 7.28864 4.49213C7.58464 4.52547 7.773 4.85851 7.74606 5.22476L7.50394 7.62254C8.3649 8.6882 9.11832 9.72065 9.36044 10.0203C9.49492 10.1536 9.97928 10.6864 10.5174 11.3858C11.3515 11.2193 12.0241 10.7197 12.4546 9.98711C13.0466 8.92157 13.2349 7.52288 12.939 6.25733L12.9389 6.25768Z" fill="#4A9231"/>
<path d="M11.2437 12.5521C11.0284 12.652 10.7863 12.7186 10.5442 12.7519C10.5172 12.9851 10.4904 13.1849 10.4365 13.3846C10.6518 13.7177 10.8132 14.0507 10.8939 14.3504C10.9747 14.6169 11.163 14.75 11.3783 14.75C11.4321 14.75 11.5128 14.75 11.5667 14.7167C11.8357 14.5834 11.9702 14.1838 11.8627 13.8508C11.7281 13.418 11.486 12.9851 11.2437 12.5521Z" fill="#4A9231"/>
</svg>
