<svg width="148" height="56" viewBox="0 0 148 56" fill="none" xmlns="http://www.w3.org/2000/svg">
<path d="M17.6584 43.1657C18.346 47.4051 19.377 51.53 20.8669 55.3116H14.7943C14.7943 55.3116 13.992 50.7283 13.8774 42.364C15.3669 43.0512 17.0854 43.2803 17.6584 43.1657Z" fill="#4A9231"/>
<path d="M24.9917 41.6753C23.3878 41.6753 21.7832 40.9877 20.6377 39.9567C18.3461 41.4462 15.1376 41.3315 12.7314 38.9253C11.4713 40.5292 9.52298 41.6754 7.46054 41.6754C1.38794 41.6754 -1.70589 33.7691 2.30426 28.7278C0.241812 25.176 1.61663 19.9051 5.51272 18.4152C4.9397 17.3838 4.48129 16.1237 4.48129 14.8635C4.48129 9.82183 9.17907 7.75938 10.4394 8.33239C9.7522 4.66555 12.3876 0.311523 16.2837 0.311523C20.1794 0.311523 22.7002 4.55092 22.013 7.75938C27.2839 6.26995 31.2941 13.7175 27.5131 18.5299C31.1795 20.2484 32.2109 25.2901 30.2631 28.6132C34.273 33.769 31.0645 41.6756 24.9919 41.6756L24.9917 41.6753Z" fill="#4A9231"/>
<path fill-rule="evenodd" clip-rule="evenodd" d="M56.853 44.1683C53.2608 43.6498 50.5 40.5322 50.5 36.764C50.5 32.6333 53.8183 13.5376 57.9116 13.5376C59.5871 13.5376 61.133 16.7364 62.3743 20.7993C61.2337 26.285 60.5588 31.5157 60.5588 33.6415C60.5588 36.6327 61.8945 39.302 63.9855 41.0519C62.8369 42.7057 61.0419 43.8687 58.9706 44.1679V53.2435H56.853V44.1683Z" fill="#4A9231"/>
<path fill-rule="evenodd" clip-rule="evenodd" d="M81.7354 45.3004C78.9249 45.3004 76.48 43.7217 75.2231 41.3951C77.5637 39.6633 79.0882 36.8347 79.0882 33.6395C79.0882 31.5966 78.4651 26.6847 77.4036 21.4352C78.6224 17.575 80.1181 14.5945 81.7354 14.5945C85.8291 14.5945 89.1474 33.6901 89.1474 37.8209C89.1474 41.209 86.9149 44.0712 83.8531 44.9907V53.2418H81.7354V45.3004Z" fill="#4A9231"/>
<path fill-rule="evenodd" clip-rule="evenodd" d="M69.029 41.0253C65.1627 40.6247 62.1465 37.3319 62.1465 33.3284C62.1465 29.0554 65.5834 9.30127 69.8233 9.30127C74.0628 9.30127 77.4997 29.0547 77.4997 33.3284C77.4997 37.1471 74.7557 40.3193 71.1467 40.9519V53.2424H69.0291L69.029 41.0253Z" fill="#4A9231"/>
<path fill-rule="evenodd" clip-rule="evenodd" d="M51.5576 53.2422H88.6171V54.3012H51.5576V53.2422Z" fill="#4A9231"/>
<path d="M132.658 43.1625C133.346 47.4019 134.377 51.5268 135.867 55.3084H129.794C129.794 55.3084 128.992 50.7251 128.877 42.3608C130.367 43.048 132.085 43.2771 132.658 43.1625Z" fill="#4A9231"/>
<path d="M139.992 41.6721C138.388 41.6721 136.783 40.9845 135.638 39.9535C133.346 41.443 130.138 41.3284 127.731 38.9221C126.471 40.5261 124.523 41.6722 122.461 41.6722C116.388 41.6722 113.294 33.7659 117.304 28.7246C115.242 25.1729 116.617 19.902 120.513 18.4121C119.94 17.3806 119.481 16.1205 119.481 14.8603C119.481 9.81865 124.179 7.75621 125.439 8.32922C124.752 4.66237 127.388 0.30835 131.284 0.30835C135.179 0.30835 137.7 4.54775 137.013 7.75621C142.284 6.26677 146.294 13.7143 142.513 18.5267C146.179 20.2453 147.211 25.2869 145.263 28.61C149.273 33.7658 146.064 41.6724 139.992 41.6724L139.992 41.6721Z" fill="#4A9231"/>
</svg>
