<svg width="1441" height="64" viewBox="0 0 1441 64" fill="none" xmlns="http://www.w3.org/2000/svg">
<path d="M664.158 45.749C664.846 49.9884 665.877 54.1132 667.367 57.8948H661.294C661.294 57.8948 660.492 53.3116 660.377 44.9473C661.867 45.6344 663.585 45.8636 664.158 45.749Z" fill="#4A9231"/>
<path d="M671.492 44.2583C669.888 44.2583 668.283 43.5707 667.138 42.5397C664.846 44.0292 661.638 43.9145 659.231 41.5083C657.971 43.1122 656.023 44.2584 653.961 44.2584C647.888 44.2584 644.794 36.3521 648.804 31.3108C646.742 27.7591 648.117 22.4881 652.013 20.9983C651.44 19.9668 650.981 18.7067 650.981 17.4465C650.981 12.4048 655.679 10.3424 656.939 10.9154C656.252 7.24855 658.888 2.89453 662.784 2.89453C666.679 2.89453 669.2 7.13393 668.513 10.3424C673.784 8.85296 677.794 16.3005 674.013 21.1129C677.679 22.8315 678.711 27.8731 676.763 31.1962C680.773 36.352 677.564 44.2586 671.492 44.2586L671.492 44.2583Z" fill="#4A9231"/>
<path fill-rule="evenodd" clip-rule="evenodd" d="M703.353 46.7518C699.761 46.2333 697 43.1157 697 39.3475C697 35.2168 700.318 16.1211 704.412 16.1211C706.087 16.1211 707.633 19.3199 708.874 23.3828C707.734 28.8685 707.059 34.0992 707.059 36.225C707.059 39.2162 708.395 41.8855 710.485 43.6354C709.337 45.2892 707.542 46.4522 705.471 46.7513V55.827H703.353V46.7518Z" fill="#4A9231"/>
<path fill-rule="evenodd" clip-rule="evenodd" d="M728.236 47.8836C725.425 47.8836 722.98 46.305 721.723 43.9783C724.064 42.2466 725.588 39.418 725.588 36.2227C725.588 34.1798 724.965 29.2679 723.904 24.0184C725.123 20.1583 726.618 17.1777 728.236 17.1777C732.329 17.1777 735.648 36.2734 735.648 40.4042C735.648 43.7922 733.415 46.6545 730.353 47.574V55.8251H728.236V47.8836Z" fill="#4A9231"/>
<path fill-rule="evenodd" clip-rule="evenodd" d="M715.529 43.6088C711.662 43.2082 708.646 39.9154 708.646 35.9119C708.646 31.6388 712.083 11.8848 716.323 11.8848C720.563 11.8848 724 31.6382 724 35.9119C724 39.7306 721.256 42.9028 717.647 43.5354V55.8259H715.529L715.529 43.6088Z" fill="#4A9231"/>
<path fill-rule="evenodd" clip-rule="evenodd" d="M698.058 55.8262H735.117V56.8852H698.058V55.8262Z" fill="#4A9231"/>
<path d="M779.158 45.746C779.846 49.9854 780.877 54.1103 782.367 57.8919H776.294C776.294 57.8919 775.492 53.3086 775.377 44.9443C776.867 45.6315 778.585 45.8606 779.158 45.746Z" fill="#4A9231"/>
<path d="M786.492 44.2554C784.888 44.2554 783.283 43.5677 782.138 42.5368C779.846 44.0262 776.638 43.9116 774.231 41.5054C772.971 43.1093 771.023 44.2554 768.961 44.2554C762.888 44.2554 759.794 36.3492 763.804 31.3079C761.742 27.7561 763.117 22.4852 767.013 20.9953C766.44 19.9639 765.981 18.7037 765.981 17.4436C765.981 12.4019 770.679 10.3395 771.939 10.9125C771.252 7.24563 773.888 2.8916 777.784 2.8916C781.679 2.8916 784.2 7.131 783.513 10.3395C788.784 8.85003 792.794 16.2975 789.013 21.11C792.679 22.8285 793.711 27.8702 791.763 31.1933C795.773 36.3491 792.564 44.2557 786.492 44.2557L786.492 44.2554Z" fill="#4A9231"/>
<path d="M1332.66 43.5937C1333.35 47.8331 1334.38 51.958 1335.87 55.7396H1329.79C1329.79 55.7396 1328.99 51.1563 1328.88 42.792C1330.37 43.4792 1332.09 43.7083 1332.66 43.5937Z" fill="#4A9231"/>
<path d="M1339.99 42.103C1338.39 42.103 1336.78 41.4154 1335.64 40.3845C1333.35 41.8739 1330.14 41.7593 1327.73 39.353C1326.47 40.957 1324.52 42.1031 1322.46 42.1031C1316.39 42.1031 1313.29 34.1969 1317.3 29.1555C1315.24 25.6038 1316.62 20.3329 1320.51 18.843C1319.94 17.8116 1319.48 16.5514 1319.48 15.2912C1319.48 10.2496 1324.18 8.18712 1325.44 8.76013C1324.75 5.09328 1327.39 0.739258 1331.28 0.739258C1335.18 0.739258 1337.7 4.97866 1337.01 8.18712C1342.28 6.69768 1346.29 14.1452 1342.51 18.9576C1346.18 20.6762 1347.21 25.7178 1345.26 29.0409C1349.27 34.1967 1346.06 42.1033 1339.99 42.1033L1339.99 42.103Z" fill="#4A9231"/>
<path fill-rule="evenodd" clip-rule="evenodd" d="M1189.85 46.3553C1186.26 45.8368 1183.5 42.7192 1183.5 38.951C1183.5 34.8204 1186.82 15.7246 1190.91 15.7246C1192.59 15.7246 1194.13 18.9234 1195.37 22.9864C1194.23 28.472 1193.56 33.7027 1193.56 35.8285C1193.56 38.8197 1194.89 41.489 1196.99 43.2389C1195.84 44.8927 1194.04 46.0557 1191.97 46.3549V55.4305H1189.85V46.3553Z" fill="#4A9231"/>
<path fill-rule="evenodd" clip-rule="evenodd" d="M1214.74 47.4872C1211.93 47.4872 1209.48 45.9085 1208.22 43.5819C1210.56 41.8501 1212.09 39.0215 1212.09 35.8262C1212.09 33.7833 1211.47 28.8714 1210.4 23.6219C1211.62 19.7618 1213.12 16.7812 1214.74 16.7812C1218.83 16.7812 1222.15 35.8769 1222.15 40.0077C1222.15 43.3958 1219.92 46.258 1216.85 47.1775V55.4286H1214.74V47.4872Z" fill="#4A9231"/>
<path fill-rule="evenodd" clip-rule="evenodd" d="M1202.03 43.2123C1198.16 42.8117 1195.15 39.5189 1195.15 35.5154C1195.15 31.2424 1198.58 11.4883 1202.82 11.4883C1207.06 11.4883 1210.5 31.2417 1210.5 35.5154C1210.5 39.3342 1207.76 42.5063 1204.15 43.1389V55.4294H1202.03L1202.03 43.2123Z" fill="#4A9231"/>
<path fill-rule="evenodd" clip-rule="evenodd" d="M1184.56 55.4297H1221.62V56.4887H1184.56V55.4297Z" fill="#4A9231"/>
<path fill-rule="evenodd" clip-rule="evenodd" d="M1371.35 46.3553C1367.76 45.8368 1365 42.7192 1365 38.951C1365 34.8204 1368.32 15.7246 1372.41 15.7246C1374.09 15.7246 1375.63 18.9234 1376.87 22.9864C1375.73 28.472 1375.06 33.7027 1375.06 35.8285C1375.06 38.8197 1376.39 41.489 1378.49 43.2389C1377.34 44.8927 1375.54 46.0557 1373.47 46.3549V55.4305H1371.35V46.3553Z" fill="#4A9231"/>
<path fill-rule="evenodd" clip-rule="evenodd" d="M1396.24 47.4872C1393.43 47.4872 1390.98 45.9085 1389.72 43.5819C1392.06 41.8501 1393.59 39.0215 1393.59 35.8262C1393.59 33.7833 1392.97 28.8714 1391.9 23.6219C1393.12 19.7618 1394.62 16.7812 1396.24 16.7812C1400.33 16.7812 1403.65 35.8769 1403.65 40.0077C1403.65 43.3958 1401.42 46.258 1398.35 47.1775V55.4286H1396.24V47.4872Z" fill="#4A9231"/>
<path fill-rule="evenodd" clip-rule="evenodd" d="M1383.53 43.2123C1379.66 42.8117 1376.65 39.5189 1376.65 35.5154C1376.65 31.2424 1380.08 11.4883 1384.32 11.4883C1388.56 11.4883 1392 31.2417 1392 35.5154C1392 39.3342 1389.26 42.5063 1385.65 43.1389V55.4294H1383.53L1383.53 43.2123Z" fill="#4A9231"/>
<path fill-rule="evenodd" clip-rule="evenodd" d="M1366.06 55.4297H1403.12V56.4887H1366.06V55.4297Z" fill="#4A9231"/>
<path d="M126.658 44.0312C127.346 48.2706 128.377 52.3955 129.867 56.1771H123.794C123.794 56.1771 122.992 51.5938 122.877 43.2295C124.367 43.9167 126.085 44.1458 126.658 44.0312Z" fill="#4A9231"/>
<path d="M133.992 42.5405C132.388 42.5405 130.783 41.8529 129.638 40.822C127.346 42.3114 124.138 42.1968 121.731 39.7905C120.471 41.3945 118.523 42.5406 116.461 42.5406C110.388 42.5406 107.294 34.6344 111.304 29.593C109.242 26.0413 110.617 20.7704 114.513 19.2805C113.94 18.2491 113.481 16.9889 113.481 15.7287C113.481 10.6871 118.179 8.62462 119.439 9.19763C118.752 5.53078 121.388 1.17676 125.284 1.17676C129.179 1.17676 131.7 5.41616 131.013 8.62462C136.284 7.13518 140.294 14.5827 136.513 19.3951C140.179 21.1137 141.211 26.1553 139.263 29.4784C143.273 34.6342 140.064 42.5408 133.992 42.5408L133.992 42.5405Z" fill="#4A9231"/>
<path fill-rule="evenodd" clip-rule="evenodd" d="M47.853 46.7928C44.2608 46.2743 41.5 43.1567 41.5 39.3885C41.5 35.2579 44.8183 16.1621 48.9116 16.1621C50.5871 16.1621 52.133 19.3609 53.3743 23.4239C52.2337 28.9095 51.5588 34.1402 51.5588 36.266C51.5588 39.2572 52.8945 41.9265 54.9855 43.6764C53.8369 45.3302 52.0419 46.4932 49.9706 46.7924V55.868H47.853V46.7928Z" fill="#4A9231"/>
<path fill-rule="evenodd" clip-rule="evenodd" d="M72.7357 47.9247C69.9251 47.9247 67.4803 46.346 66.2234 44.0194C68.5639 42.2876 70.0884 39.459 70.0884 36.2637C70.0884 34.2208 69.4653 29.3089 68.4039 24.0594C69.6226 20.1993 71.1184 17.2188 72.7357 17.2188C76.8294 17.2188 80.1477 36.3144 80.1477 40.4452C80.1477 43.8333 77.9151 46.6955 74.8533 47.615V55.8661H72.7357V47.9247Z" fill="#4A9231"/>
<path fill-rule="evenodd" clip-rule="evenodd" d="M60.0289 43.6498C56.1626 43.2492 53.1464 39.9564 53.1464 35.9529C53.1464 31.6799 56.5833 11.9258 60.8232 11.9258C65.0626 11.9258 68.4996 31.6792 68.4996 35.9529C68.4996 39.7717 65.7556 42.9438 62.1466 43.5764V55.8669H60.029L60.0289 43.6498Z" fill="#4A9231"/>
<path fill-rule="evenodd" clip-rule="evenodd" d="M42.5577 55.8672H79.6173V56.9262H42.5577V55.8672Z" fill="#4A9231"/>
<path fill-rule="evenodd" clip-rule="evenodd" d="M229.353 46.7928C225.761 46.2743 223 43.1567 223 39.3885C223 35.2579 226.318 16.1621 230.412 16.1621C232.087 16.1621 233.633 19.3609 234.874 23.4239C233.734 28.9095 233.059 34.1402 233.059 36.266C233.059 39.2572 234.395 41.9265 236.485 43.6764C235.337 45.3302 233.542 46.4932 231.471 46.7924V55.868H229.353V46.7928Z" fill="#4A9231"/>
<path fill-rule="evenodd" clip-rule="evenodd" d="M254.236 47.9247C251.425 47.9247 248.98 46.346 247.723 44.0194C250.064 42.2876 251.588 39.459 251.588 36.2637C251.588 34.2208 250.965 29.3089 249.904 24.0594C251.123 20.1993 252.618 17.2188 254.236 17.2188C258.329 17.2188 261.648 36.3144 261.648 40.4452C261.648 43.8333 259.415 46.6955 256.353 47.615V55.8661H254.236V47.9247Z" fill="#4A9231"/>
<path fill-rule="evenodd" clip-rule="evenodd" d="M241.529 43.6498C237.662 43.2492 234.646 39.9564 234.646 35.9529C234.646 31.6799 238.083 11.9258 242.323 11.9258C246.563 11.9258 250 31.6792 250 35.9529C250 39.7717 247.255 42.9438 243.647 43.5764V55.8669H241.529L241.529 43.6498Z" fill="#4A9231"/>
<path fill-rule="evenodd" clip-rule="evenodd" d="M224.058 55.8672H261.117V56.9262H224.058V55.8672Z" fill="#4A9231"/>
<line x1="-2.5" y1="58.7598" x2="1443.5" y2="58.7598" stroke="#4A9231" stroke-width="9"/>
</svg>
