<svg width="25" height="31" viewBox="0 0 25 31" fill="none" xmlns="http://www.w3.org/2000/svg">
<g clip-path="url(#clip0_493_702)">
<path d="M23.928 12.2953C23.4311 10.2658 21.9902 7.43685 18.0154 5.53009C14.0902 3.68509 2.7118 0.610033 1.51934 1.40955C1.42004 1.47112 1.32056 1.59402 1.22125 1.65559C1.12195 1.7785 1.02247 1.96298 0.923167 2.14746C0.724383 2.76246 0.873424 3.193 1.07221 3.74642C1.56907 5.09935 3.15899 9.28148 4.25222 22.1349C4.60005 26.6244 6.48803 28.5925 7.97867 29.3917C8.92265 29.9452 9.91643 30.1297 10.9102 30.1297C12.6491 30.1297 14.2888 29.4531 15.4318 28.4691C16.7236 27.362 17.469 25.4556 17.618 23.0572C17.0219 22.2577 16.4255 21.6427 16.0281 21.2122C15.9784 21.1507 15.9288 21.0893 15.8293 21.0277L15.7796 20.9662C15.4815 20.5356 15.1337 20.1051 14.7859 19.6132H14.7361L11.1587 20.1667H11.0594C10.5626 20.1667 10.165 19.7362 10.1155 19.1211C10.0657 18.4446 10.4136 17.8296 10.9602 17.7682L13.196 17.3992C11.1588 14.8163 8.92291 12.2332 7.97879 11.8026C7.48192 11.5566 7.23358 10.8802 7.43217 10.2036C7.63095 9.58864 8.17737 9.28126 8.72399 9.52706C9.5687 9.95759 10.8108 11.1876 12.1523 12.725L12.4007 10.0805C12.4504 9.40389 12.9473 8.97335 13.4937 9.03493C14.0404 9.0965 14.3882 9.71151 14.3384 10.3879L13.8913 14.8158C15.4812 16.7837 16.8726 18.6903 17.3197 19.2437C17.568 19.4898 18.4625 20.4737 19.4562 21.7653C20.9966 21.4579 22.2386 20.5353 23.0336 19.1824C24.1268 17.2147 24.4746 14.6317 23.928 12.2947L23.928 12.2953Z" fill="white"/>
<path d="M20.7975 23.9192C20.3999 24.1037 19.9528 24.2266 19.5057 24.2882C19.4559 24.7187 19.4064 25.0877 19.3069 25.4566C19.7045 26.0716 20.0025 26.6866 20.1516 27.24C20.3007 27.7321 20.6485 27.978 21.0461 27.978C21.1454 27.978 21.2944 27.978 21.3939 27.9164C21.8908 27.6704 22.1391 26.9324 21.9405 26.3174C21.692 25.5182 21.2449 24.7187 20.7975 23.9192Z" fill="white"/>
</g>
<defs>
<clipPath id="clip0_493_702">
<rect width="24.2374" height="30" fill="white" transform="translate(0.381317 0.739502)"/>
</clipPath>
</defs>
</svg>
