<svg width="95" height="96" viewBox="0 0 95 96" fill="none" xmlns="http://www.w3.org/2000/svg">
<path d="M92.2664 72.6287L85.7255 67.4915C86.6118 65.4575 87.1135 63.2001 87.1135 60.8393C87.1135 52.7022 81.2663 45.9169 73.5737 44.4915V14.4231V14.3638V14.2749V14.2453C73.5737 14.0667 73.5291 13.9041 73.4702 13.7408C73.4551 13.7256 73.4551 13.6959 73.4551 13.6815C73.381 13.5181 73.2926 13.37 73.1596 13.2362L60.8748 0.882083C60.8317 0.822057 60.7871 0.806859 60.7433 0.76279C60.6549 0.688327 60.5514 0.614623 60.4335 0.554599C60.3746 0.524966 60.3156 0.509769 60.2559 0.495332C60.1524 0.4657 60.0346 0.436064 59.9167 0.420869C59.8721 0.420869 59.8427 0.391235 59.7988 0.391235H5.09407C2.28862 0.391235 0 2.69276 0 5.52842V90.2541C0 93.0897 2.28862 95.3912 5.09407 95.3912H68.4817C71.2872 95.3912 73.5758 93.0897 73.5758 90.2541V77.1728C74.8308 76.935 76.0412 76.5642 77.1784 76.0589L82.2867 82.6215C83.5417 84.2399 85.4171 85.2346 87.4549 85.3683C87.6022 85.3835 87.7503 85.3835 87.8977 85.3835C89.773 85.3835 91.5886 84.6411 92.9176 83.2901C94.3646 81.835 95.1179 79.8306 94.985 77.7965C94.8664 75.7769 93.863 73.8918 92.2679 72.6298L92.2664 72.6287ZM84.1607 60.8239C84.1607 68.3667 78.0626 74.4994 70.577 74.4994C63.0765 74.4994 56.9782 68.3669 56.9782 60.8239C56.9782 53.2955 63.0763 47.1636 70.577 47.1636C78.0624 47.1636 84.1607 53.2953 84.1607 60.8239ZM61.2745 5.46833L68.5394 12.7742H64.0506C62.5153 12.7742 61.2745 11.5121 61.2745 9.96808V5.46833ZM70.6209 90.2679C70.6209 91.4707 69.6613 92.4358 68.4797 92.4358H5.09394C3.91298 92.4358 2.95271 91.4556 2.95271 90.2679V5.54225C2.95271 4.36908 3.94176 3.37436 5.09394 3.37436H58.3229V9.99707C58.3229 13.1747 60.8917 15.7732 64.0516 15.7732H70.622V44.1921H70.5775C61.4524 44.1921 54.026 51.6606 54.026 60.8225C54.026 69.999 61.4526 77.4673 70.5775 77.4673H70.622L70.6209 90.2679ZM90.8204 81.2108C89.9787 82.0573 88.7826 82.5177 87.6312 82.428C86.4351 82.3536 85.3576 81.7898 84.6187 80.824L79.8057 74.633C81.5775 73.4301 83.0984 71.9006 84.2795 70.1188L90.4366 74.9597C91.3962 75.7021 91.9576 76.7864 92.0316 77.9892C92.1049 79.1912 91.6621 80.3644 90.8204 81.2108Z" fill="#81A1C7"/>
<path d="M66.013 60.2301C65.4372 59.6511 64.5071 59.6511 63.9313 60.2301C63.3556 60.8091 63.3556 61.7445 63.9313 62.3235L68.3612 66.7783C68.6566 67.0754 69.0253 67.2092 69.4092 67.2092C69.793 67.2092 70.1624 67.061 70.4571 66.7783L77.5292 59.6664C78.1049 59.0874 78.1049 58.1521 77.5292 57.573C76.9534 56.994 76.0233 56.994 75.4475 57.573L69.4233 63.6313L66.013 60.2301Z" fill="#81A1C7"/>
<path d="M41.3415 28.6175C41.3415 22.8861 36.7052 18.2237 31.0059 18.2237C25.3066 18.2237 20.6704 22.8861 20.6704 28.6175C20.6704 34.3489 25.3066 39.0113 31.0059 39.0113C36.7052 39.0113 41.3415 34.3489 41.3415 28.6175ZM31.0059 36.0418C26.9304 36.0418 23.6233 32.7008 23.6233 28.6175C23.6233 24.519 26.9455 21.1932 31.0059 21.1932C35.0814 21.1932 38.3886 24.519 38.3886 28.6175C38.3879 32.7152 35.0806 36.0418 31.0059 36.0418Z" fill="#81A1C7"/>
<path d="M51.676 76.1764H44.2933V72.7609C44.2933 71.3355 43.1418 70.1919 41.7387 70.1919H32.4807V65.7371H39.8634C40.6757 65.7371 41.3398 65.0692 41.3398 64.2524V55.3433C41.3398 54.5265 40.6757 53.8586 39.8634 53.8586H32.4958V50.7699C33.367 50.7106 34.2231 50.6217 35.0504 50.4728C35.3458 50.4135 35.6118 50.2798 35.8181 50.0572C36.0395 49.8346 36.2019 49.5223 36.2465 49.1963L36.6749 46.375C37.6344 46.0635 38.5797 45.6623 39.4946 45.1874L41.7833 46.8803C41.7984 46.8955 41.8278 46.9099 41.8422 46.9251C42.3439 47.2815 43.0088 47.2967 43.54 46.9403C45.1788 45.812 46.6408 44.461 47.9102 42.9459C48.353 42.4262 48.7814 41.8472 49.2242 41.1938C49.534 40.7485 49.5491 40.1247 49.2982 39.6498C49.2687 39.5753 49.2242 39.5161 49.1803 39.4568L47.4826 37.1553C47.645 36.8285 47.8075 36.5018 47.9843 36.1606C48.2503 35.5368 48.4716 34.9434 48.6635 34.334L51.4243 33.9032C52.0741 33.8439 52.6204 33.3387 52.7383 32.686C52.9748 31.2901 53.0926 29.9688 53.0926 28.6474C53.0926 27.326 52.9747 25.96 52.7231 24.5937C52.6053 23.9554 52.0885 23.4653 51.453 23.3764L48.6476 22.9456C48.3378 21.951 47.9388 21.0004 47.481 20.1099L49.1644 17.8084C49.2528 17.6899 49.3268 17.541 49.3714 17.3928C49.4303 17.2294 49.4598 17.0516 49.4598 16.8731C49.4598 16.576 49.3714 16.2789 49.209 16.0418C47.7031 13.8292 45.7983 11.8992 43.5393 10.3248C43.0965 10.0132 42.4762 9.98362 41.9745 10.2503C41.9004 10.2799 41.8415 10.3248 41.7674 10.3689L39.4939 12.0466C38.5782 11.5717 37.6337 11.1857 36.6742 10.8589L36.2458 8.05284C36.1574 7.42902 35.6549 6.90929 35.0497 6.79076C32.4067 6.28622 29.6307 6.28622 26.9734 6.79076C26.3531 6.90929 25.8657 7.429 25.7773 8.05284L25.3489 10.8741C24.4037 11.1856 23.4592 11.5868 22.5434 12.0617L20.2548 10.384C20.2254 10.3688 20.1959 10.3392 20.1808 10.3248C19.6791 9.98359 19.0142 9.9684 18.5125 10.3248C16.298 11.8687 14.378 13.7842 12.8275 16.0562C12.5026 16.5167 12.4883 17.1101 12.7391 17.5857C12.7837 17.6602 12.8275 17.7339 12.8721 17.8084L14.5555 20.1099C14.0976 21.0012 13.6994 21.9509 13.3889 22.9455L10.5985 23.3764C10.2736 23.4212 9.94874 23.5846 9.72736 23.8072C9.52034 24.0154 9.373 24.2821 9.31407 24.5792C9.07756 25.8564 8.94458 27.2219 8.94458 28.6329C8.94458 30.0135 9.06246 31.3653 9.28384 32.6715C9.38735 33.2656 9.83011 33.7253 10.3915 33.8591C10.4504 33.8743 10.5094 33.8887 10.5691 33.9039L13.3745 34.3492C13.5521 34.9282 13.7878 35.5368 14.0681 36.1902C14.2011 36.5018 14.3635 36.8437 14.5555 37.1849L12.931 39.3975C12.8426 39.4864 12.7685 39.5905 12.7096 39.709C12.4588 40.1991 12.4882 40.7933 12.798 41.2386C13.3148 41.9961 13.7727 42.5895 14.2155 43.1093C15.4705 44.5644 16.9031 45.856 18.4828 46.9549C18.9845 47.3112 19.7084 47.2816 20.2252 46.91L22.5138 45.2171C23.4439 45.692 24.3891 46.0932 25.3336 46.4048L25.762 49.226C25.8065 49.5528 25.969 49.8643 26.1904 50.0869C26.3974 50.3095 26.6777 50.4433 26.9731 50.5025C27.8292 50.6507 28.6709 50.7404 29.5277 50.7996V53.8884H22.1307C21.3185 53.8884 20.6543 54.5563 20.6543 55.3731V64.2821C20.6543 65.0989 21.3185 65.7668 22.1307 65.7668H29.5134V70.2217H20.2554C18.838 70.2217 17.7009 71.3796 17.7009 72.7906V76.2062H10.3182C9.50594 76.2062 8.8418 76.874 8.8418 77.6909V86.5999C8.8418 87.4167 9.50594 88.0846 10.3182 88.0846H28.0364C28.8486 88.0846 29.5128 87.4167 29.5128 86.5999V77.6909C29.5128 76.874 28.8486 76.2062 28.0364 76.2062H20.6537V73.1919H41.3406V76.2062H33.9579C33.1457 76.2062 32.4816 76.874 32.4816 77.6909V86.5999C32.4816 87.4167 33.1457 88.0846 33.9579 88.0846H51.6762C52.4884 88.0846 53.1525 87.4167 53.1525 86.5999V77.6909C53.1533 76.8444 52.4891 76.1765 51.6769 76.1765L51.676 76.1764ZM28.1109 44.9954C28.0225 44.4164 27.594 43.9263 27.0327 43.7781C25.7036 43.4218 24.3897 42.8724 23.1347 42.1445C22.633 41.8474 21.9976 41.8922 21.5254 42.2334L19.3252 43.8519C18.2772 43.0502 17.3168 42.1293 16.4607 41.1347C16.2688 40.8968 16.0618 40.6598 15.8555 40.3771L17.4943 38.1501C17.8487 37.6752 17.8782 37.0362 17.5827 36.5165C17.2284 35.9078 16.9775 35.4177 16.7856 34.9573C16.4018 34.0964 16.1653 33.3685 16.0028 32.6709C15.8699 32.0767 15.3825 31.617 14.7924 31.5274L12.046 31.0966C11.9424 30.295 11.8986 29.4781 11.8986 28.6173C11.8986 27.7564 11.9432 26.9396 12.046 26.138L14.763 25.7223C15.3539 25.6334 15.8261 25.2026 15.9734 24.6236C16.3278 23.2134 16.8597 21.9208 17.5533 20.7629C17.8631 20.2431 17.8337 19.6049 17.4793 19.1148L15.8548 16.8878C16.8733 15.5512 18.04 14.3781 19.3396 13.369L21.5541 14.9874C22.0264 15.3286 22.6467 15.3734 23.1491 15.0763C24.4193 14.3484 25.7331 13.799 27.0471 13.4427C27.6084 13.2945 28.0361 12.8188 28.1253 12.2398L28.5385 9.53704C30.163 9.31441 31.8312 9.31441 33.4845 9.53704L33.8977 12.2398C33.9861 12.8188 34.4146 13.2937 34.9759 13.4571C36.3193 13.8134 37.634 14.3628 38.8739 15.0907C39.3756 15.3878 40.011 15.343 40.4832 15.0018L42.6978 13.3834C44.0268 14.4076 45.1933 15.5808 46.1825 16.8878L44.5444 19.1148C44.1901 19.6049 44.1606 20.2432 44.4704 20.7629C45.164 21.9064 45.6959 23.2126 46.0654 24.6381C46.2127 25.2171 46.6857 25.6327 47.2758 25.7223L49.9778 26.138C50.0813 26.9844 50.1402 27.8157 50.1402 28.6173C50.1402 29.4341 50.0813 30.2509 49.9778 31.1117L47.2607 31.5426C46.685 31.6315 46.2128 32.0623 46.0647 32.6413C45.8576 33.4133 45.6068 34.1853 45.2819 34.9276C45.0159 35.4625 44.75 36.0119 44.4402 36.5316C44.1448 37.0514 44.1742 37.6896 44.5286 38.1653L46.1674 40.3923C45.9899 40.6301 45.8131 40.8375 45.6355 41.0457C44.7643 42.0996 43.7753 43.0502 42.6972 43.8966L40.4826 42.2629C40.0104 41.9218 39.375 41.8769 38.8733 42.174C37.6183 42.902 36.3044 43.4513 34.9753 43.8077C34.3996 43.9558 33.9863 44.4315 33.8972 45.0249L33.4839 47.7421C31.9629 47.9351 30.2651 47.9503 28.538 47.7421L28.1109 44.9954ZM23.6228 56.8298H38.3882V62.7694H23.6228V56.8298ZM26.5756 85.0872H11.8103V79.1477H26.5756V85.0872ZM50.2007 85.0872H35.4353V79.1477H50.2007V85.0872Z" fill="#81A1C7"/>
</svg>
