<svg width="95" height="96" viewBox="0 0 95 96" fill="none" xmlns="http://www.w3.org/2000/svg">
<path d="M70.8696 26.468C76.239 26.468 80.6071 21.6627 80.6071 15.7569C80.6071 9.85061 76.2388 5.04532 70.8696 5.04532C65.5005 5.04532 61.1321 9.85061 61.1321 15.7564C61.1329 21.6627 65.5012 26.468 70.8696 26.468ZM70.8696 8.94032C74.0913 8.94032 76.7121 11.9981 76.7121 15.7562C76.7121 19.5143 74.0913 22.5728 70.8696 22.5728C67.648 22.5728 65.0271 19.515 65.0271 15.7569C65.0271 11.9981 67.648 8.94032 70.8696 8.94032Z" fill="#81A1C7"/>
<path d="M24.1304 26.468C29.4997 26.468 33.8679 21.6627 33.8679 15.7569C33.8679 9.85061 29.4988 5.04532 24.1304 5.04532C18.761 5.04532 14.3929 9.85061 14.3929 15.7564C14.3929 21.6627 18.7612 26.468 24.1304 26.468ZM24.1304 8.94032C27.352 8.94032 29.9729 11.9981 29.9729 15.7562C29.9729 19.5143 27.352 22.5728 24.1304 22.5728C20.9087 22.5728 18.2879 19.5143 18.2879 15.7562C18.2879 11.9981 20.9087 8.94032 24.1304 8.94032Z" fill="#81A1C7"/>
<path d="M8.54999 55.6805C9.62632 55.6805 10.4975 54.8086 10.4975 53.733V43.8701C10.4975 38.569 14.8948 34.2578 20.2973 34.2578H29.3298C28.5013 35.9966 28.0251 37.9296 28.0251 39.9743V45.943C28.0251 47.0186 28.8963 47.8905 29.9726 47.8905C31.049 47.8905 31.9201 47.0186 31.9201 45.943V39.9751C31.9201 34.674 36.3167 30.3628 41.72 30.3628H53.2797C58.6831 30.3628 63.0796 34.6738 63.0796 39.9743V45.943C63.0796 47.0186 63.9508 47.8905 65.0271 47.8905C66.1034 47.8905 66.9746 47.0186 66.9746 45.943V39.9751C66.9746 37.9298 66.4984 35.9968 65.67 34.258H76.7122C79.0613 34.258 82.5547 35.2952 82.5547 38.153C82.5547 39.2286 83.4259 40.1005 84.5022 40.1005C85.5785 40.1005 86.4497 39.2286 86.4497 38.153C86.4497 33.039 81.5509 30.363 76.7122 30.363H65.0901C64.4081 30.363 63.7297 30.4369 63.0601 30.5377C60.5726 28.0298 57.1096 26.4679 53.2797 26.4679H41.72C37.8901 26.4679 34.427 28.0298 31.9396 30.5377C31.2699 30.4369 30.5915 30.363 29.9095 30.363H20.2973C12.745 30.363 6.60223 36.4222 6.60223 43.8695V53.7332C6.60223 54.8081 7.47343 55.6807 8.54973 55.6807L8.54999 55.6805Z" fill="#81A1C7"/>
<mask id="mask0_611_492" style="mask-type:luminance" maskUnits="userSpaceOnUse" x="37" y="1" width="21" height="22">
<path d="M37.666 1.15012H57.334V22.6569H37.666V1.15012Z" fill="white"/>
</mask>
<g mask="url(#mask0_611_492)">
<path d="M47.5 22.5733C52.8694 22.5733 57.2375 17.7681 57.2375 11.8623C57.2375 5.95596 52.8684 1.15067 47.5 1.15067C42.1307 1.15067 37.7625 5.95596 37.7625 11.8617C37.7625 17.7681 42.1308 22.5733 47.5 22.5733ZM47.5 5.04567C50.7217 5.04567 53.3425 8.10348 53.3425 11.8615C53.3425 15.6196 50.7217 18.6782 47.5 18.6782C44.2784 18.6782 41.6575 15.6204 41.6575 11.8623C41.6575 8.10348 44.2784 5.04567 47.5 5.04567Z" fill="#81A1C7"/>
</g>
<mask id="mask1_611_492" style="mask-type:luminance" maskUnits="userSpaceOnUse" x="0" y="41" width="95" height="54">
<path d="M0.758881 41.7682H94.2393V94.6305H0.758881V41.7682Z" fill="white"/>
</mask>
<g mask="url(#mask1_611_492)">
<path d="M94.1168 45.8632C93.6834 44.2346 92.681 42.9865 91.2161 42.2545C87.0051 40.1489 82.0395 45.5168 81.1777 46.5148L70.6551 57.0374C68.3699 55.3443 65.1728 55.6472 64.8937 55.6871C57.4023 56.2017 48.3895 55.7661 46.9291 54.3057C42.336 49.7104 32.8746 50.7817 27.6415 51.8254C20.2587 53.3018 16.5912 58.5291 15.6665 60.0461L13.8204 58.2001C13.0594 57.439 11.8273 57.439 11.0662 58.2001L1.32865 67.9376C0.567614 68.6986 0.567614 69.9307 1.32865 70.6918L24.6983 94.0614C25.0795 94.4412 25.5775 94.6311 26.0761 94.6311C26.574 94.6311 27.0727 94.4412 27.4532 94.0607L37.1907 84.3232C37.9518 83.5622 37.9518 82.3301 37.1907 81.569L36.6196 80.9986H66.9732C74.0255 80.9986 83.0056 68.6148 90.8624 56.5008C91.3052 55.8159 91.6763 55.244 91.9633 54.8142C93.9913 51.7722 94.7959 48.4266 94.1153 45.8631L94.1168 45.8632ZM26.0767 89.9306L5.46063 69.3145L12.4441 62.331L30.5406 80.4276C30.5414 80.4283 30.5428 80.4298 30.5435 80.4305L33.0599 82.9469L26.0767 89.9306ZM88.7248 52.6542C88.432 53.0942 88.0493 53.6813 87.5948 54.3821C77.8195 69.46 70.8812 77.1042 66.975 77.1042H32.7268L18.436 62.8134C18.6099 62.6604 18.7672 62.4829 18.881 62.2654C18.9078 62.2132 21.7243 56.9796 28.4077 55.6431C35.7889 54.1703 41.8294 54.7124 44.1762 57.0579C47.6031 60.4847 61.1031 59.8468 65.2618 59.562C65.9315 59.483 67.6716 59.5337 68.453 60.2259C68.6545 60.4049 68.9226 60.734 68.9226 61.5247C68.9226 62.3119 68.6581 62.6402 68.4588 62.8192C67.6274 63.5629 65.819 63.5484 65.2618 63.4868C65.1842 63.4766 65.106 63.4715 65.0277 63.4715H45.5527C44.4764 63.4715 43.6052 64.3435 43.6052 65.4191C43.6052 66.4946 44.4764 67.3666 45.5527 67.3666H64.9256C65.1105 67.3847 65.4337 67.4086 65.8519 67.4086C67.1739 67.4086 69.4215 67.1687 71.0385 65.7365C71.8503 65.0168 72.8179 63.702 72.8179 61.5248C72.8179 61.1457 72.7563 60.8261 72.7041 60.4977L84.0239 49.1721C85.7562 47.1912 88.5125 45.259 89.4744 45.7395C89.9368 45.97 90.2064 46.3165 90.3514 46.8644C90.7319 48.2959 90.0796 50.6239 88.7257 52.654L88.7248 52.6542Z" fill="#81A1C7"/>
</g>
</svg>
