<svg width="91" height="91" viewBox="0 0 91 91" fill="none" xmlns="http://www.w3.org/2000/svg">
<path d="M28.079 6.9585H10.5166C9.66644 6.9585 9.10037 7.52529 9.10037 8.37474V25.7959C9.10037 26.6461 9.66716 27.2122 10.5166 27.2122H27.9378C28.788 27.2122 29.354 26.6454 29.354 25.7959V8.37474C29.4954 7.52456 28.7871 6.9585 28.079 6.9585ZM26.6628 24.3797H11.9327V9.79105H26.5214V24.3797H26.6628Z" fill="#81A1C7"/>
<path d="M28.079 35.1449H10.5166C9.66644 35.1449 9.10037 35.7117 9.10037 36.5611V53.9823C9.10037 54.8325 9.66716 55.3986 10.5166 55.3986H27.9378C28.788 55.3986 29.354 54.8318 29.354 53.9823V36.5611C29.4954 35.853 28.7871 35.1449 28.079 35.1449ZM26.6628 52.7073H11.9327V37.9773H26.5214V52.7073H26.6628Z" fill="#81A1C7"/>
<path d="M28.079 63.4724H10.5166C9.66644 63.4724 9.10037 64.0391 9.10037 64.8886V82.3098C9.10037 83.16 9.66716 83.726 10.5166 83.726H27.9378C28.788 83.726 29.354 83.1592 29.354 82.3098V64.8886C29.4954 64.1805 28.7871 63.4724 28.079 63.4724ZM26.6628 80.8935H11.9327V66.3049H26.5214V80.8935H26.6628Z" fill="#81A1C7"/>
<path d="M16.1799 21.4051C16.4632 21.6885 16.888 21.8299 17.1714 21.8299C17.5961 21.8299 17.8795 21.6885 18.1629 21.4051L24.9615 14.6065C25.5283 14.0397 25.5283 13.1903 24.9615 12.6234C24.3947 12.0566 23.5453 12.0566 22.9784 12.6234L17.1713 18.4305L15.6131 16.8722C15.0463 16.3054 14.1968 16.3054 13.6299 16.8722C13.0631 17.439 13.0631 18.2884 13.6299 18.8553L16.1799 21.4051Z" fill="#81A1C7"/>
<path d="M16.1799 49.7326C16.4632 50.016 16.7467 50.1573 17.1714 50.1573C17.5961 50.1573 17.8795 50.016 18.1629 49.7326L24.9615 42.934C25.5283 42.3672 25.5283 41.5177 24.9615 40.9508C24.3947 40.3841 23.5453 40.3841 22.9784 40.9508L17.1713 46.7579L15.6131 45.1996C15.0463 44.6328 14.1968 44.6328 13.6299 45.1996C13.0631 45.7664 13.0631 46.6159 13.6299 47.1827L16.1799 49.7326Z" fill="#81A1C7"/>
<path d="M16.1799 78.0601C16.4632 78.3434 16.888 78.4848 17.1714 78.4848C17.5961 78.4848 17.8795 78.3435 18.1629 78.0601L24.9615 71.2614C25.5283 70.6946 25.5283 69.8452 24.9615 69.2783C24.3947 68.7115 23.5453 68.7115 22.9784 69.2783L17.1713 75.0854L15.6131 73.5271C15.0463 72.9603 14.1968 72.9603 13.6299 73.5271C13.0631 74.0939 13.0631 74.9433 13.6299 75.5102L16.1799 78.0601Z" fill="#81A1C7"/>
<path d="M89.1239 50.8663H73.2604C72.4102 50.8663 71.8442 51.4331 71.8442 52.2825C69.0116 51.291 70.0032 51.8578 68.5861 51.1497L68.5869 22.2563C68.5869 21.8316 68.4455 21.5482 68.1621 21.2648L47.3419 0.44457C47.0585 0.161908 46.6338 0.0198364 46.3504 0.0198364H1.87666C1.02648 0.0198364 0.460419 0.586626 0.460419 1.43608V89.2517C0.460419 90.1019 1.02721 90.6679 1.87666 90.6679H67.0296C67.8798 90.6679 68.4458 90.1012 68.4458 89.2517V81.037H71.7038C71.8452 81.7451 72.412 82.1698 73.1201 82.1698H88.9836C89.8338 82.1698 90.3999 81.6031 90.3999 80.7536V52.2851C90.5412 51.4357 89.8331 50.8689 89.1249 50.8689L89.1239 50.8663ZM71.8441 55.1149V78.2025H44.5094C42.5262 78.2025 42.385 76.6442 42.385 76.2194C42.385 75.6526 42.5264 75.2279 42.8098 74.8032C43.0932 74.3784 43.6599 74.2364 44.226 74.2364C45.0762 74.2364 45.6423 73.6696 45.6423 72.8201C45.6423 71.97 45.0755 71.4039 44.226 71.4039H42.2429C40.2598 71.4039 40.1186 69.8456 40.1186 69.4208C40.1186 68.7126 40.5433 67.4376 42.1017 67.4376C42.8098 67.4376 43.3766 66.8708 43.5179 66.1627C43.5179 65.4546 43.0932 64.7465 42.3851 64.6044H41.3935C39.1271 64.7458 38.2777 64.321 37.9943 63.1882C37.853 62.6214 37.9943 61.9133 38.2777 61.4885C38.7024 61.0638 39.2692 60.7804 39.836 60.7804C40.6862 60.7804 41.2523 60.2136 41.2523 59.3642C41.2523 58.514 40.6855 57.9479 39.836 57.9479H37.7117C36.1534 57.9479 35.7286 56.673 35.7286 55.9648C35.7286 55.6814 35.8699 53.9817 37.8529 53.9817H47.7674C50.0339 53.9817 51.8748 52.9902 52.725 51.4319C53.4331 49.8736 53.7165 47.1825 50.4586 42.9337C49.3257 41.5174 48.9003 39.6757 49.467 38.2596C50.1752 36.2764 52.1582 35.427 53.4331 35.2851C53.2918 45.6243 63.4896 51.7147 68.0217 53.8397C68.1623 54.1239 71.8449 55.1154 71.8449 55.1154L71.8441 55.1149ZM47.7657 4.83359L63.7706 20.8385H47.7657V4.83359ZM65.7536 87.8324H3.43392V2.85009H44.9333V22.2546C44.9333 23.1048 45.5001 23.6708 46.3496 23.6708H65.7541V49.4489C61.5047 46.7577 56.2643 41.9422 56.4057 35.2849C56.4057 34.5768 56.1223 33.7267 55.5555 33.3018C54.9887 32.735 54.1392 32.5937 53.4312 32.5937C50.1731 33.0184 47.9074 34.8602 46.9161 37.4092C46.0659 39.817 46.6327 42.508 48.3323 44.7745C50.1733 47.0409 50.8821 49.1653 50.3154 50.1568C49.8907 51.007 48.4744 51.1483 47.9076 51.1483H37.9931C34.735 51.1483 33.0354 53.5562 33.0354 55.9638C33.0354 57.6635 34.027 59.5045 35.7266 60.3546C35.1598 61.4875 35.0185 62.6211 35.3019 63.8952C35.7266 65.5949 36.8602 66.5864 37.993 67.0111C37.5683 67.7192 37.4263 68.5694 37.4263 69.419C37.4263 71.1186 38.4178 72.9596 40.1174 73.8097C39.6927 74.5179 39.5506 75.368 39.5506 76.2176C39.5506 78.6254 41.2503 81.0331 44.5083 81.0331H65.7534L65.7536 87.8324ZM87.7075 79.4756H74.6771V53.6975H87.7075V79.4756Z" fill="#81A1C7"/>
</svg>
