<svg width="89" height="89" viewBox="0 0 89 89" fill="none" xmlns="http://www.w3.org/2000/svg">
<path d="M78.0116 43.0558C78.0674 42.5448 78.0942 42.0316 78.0942 41.5192C78.0942 33.4661 71.5415 26.9131 63.4882 26.9131C61.7523 26.9131 60.0294 27.2226 58.4205 27.8191C56.5202 22.1215 50.9385 18.149 44.5002 18.149C38.0612 18.149 32.4803 22.1215 30.58 27.8184C28.9709 27.2226 27.2481 26.9131 25.5123 26.9131C17.4592 26.9131 10.9062 33.4659 10.9062 41.5192C10.9062 42.0316 10.9331 42.5448 10.9889 43.0557C5.19127 43.6972 0.680809 48.3316 0.680809 53.9349C0.680809 59.9761 5.92251 64.8894 12.366 64.8894C13.1118 64.8894 13.8583 64.8227 14.5911 64.6894C15.0492 64.822 15.5282 64.8894 16.0175 64.8894H33.5604C33.7155 65.4924 33.83 66.0998 33.8575 66.7268C33.8677 66.8449 33.8662 66.9623 33.8662 67.0804V78.0349C33.8662 81.3429 35.5311 84.4478 38.3012 86.3294C40.1008 87.592 42.2433 88.2595 44.5003 88.2595C50.3639 88.2595 55.1338 83.6722 55.1338 78.0349V67.0942C55.1338 66.3469 55.265 65.6141 55.4563 64.8886L71.5221 64.8893C72.2114 64.8893 72.8854 64.7538 73.5052 64.4928C74.5185 64.7552 75.5687 64.8893 76.6341 64.8893C83.0768 64.8893 88.3193 59.9753 88.3193 53.9348C88.3193 48.3315 83.8088 43.6971 78.012 43.0556L78.0116 43.0558ZM55.7163 58.4337C54.495 59.8231 53.5783 61.3321 52.9977 62.9013C52.4773 64.2465 52.2134 65.657 52.2134 67.095V72.1926H36.7884V67.0806C36.7884 66.8769 36.7869 66.674 36.7724 66.5384C36.7239 65.3432 36.4731 64.1263 36.0295 62.934C35.4519 61.3307 34.5589 59.8515 33.3725 58.5337C31.13 56.0585 29.8942 52.8695 29.8942 49.5529C29.8942 45.6846 31.5178 42.0969 34.4655 39.4515C37.5952 36.6444 41.8613 35.3049 46.2006 35.7718C52.8659 36.4821 58.3866 41.813 59.041 48.1628C59.0874 48.6353 59.1092 49.105 59.1077 49.5725C59.0947 52.8398 57.9154 55.9434 55.7165 58.4339L55.7163 58.4337ZM52.2134 78.0349C52.2134 82.0618 48.7533 85.3378 44.5009 85.3378C42.8477 85.3378 41.2843 84.8544 39.9608 83.9259C37.9452 82.5568 36.7883 80.4085 36.7883 78.0348V75.1139H52.2134V78.0349ZM76.635 61.9676C75.6624 61.9676 74.7078 61.8234 73.8012 61.5385C73.657 61.4943 73.5105 61.4719 73.3634 61.4719C73.1039 61.4719 72.8459 61.5414 72.6176 61.6755C72.2915 61.8698 71.924 61.9676 71.5232 61.9676H56.7136C56.8201 61.798 56.9361 61.6306 57.0535 61.4639C57.1173 61.3726 57.1753 61.2798 57.2427 61.1892C57.4514 60.9094 57.6732 60.6333 57.9116 60.3629C59.0496 59.0743 59.9614 57.6486 60.6355 56.1303C60.6391 56.1216 60.6442 56.1136 60.6485 56.1049C60.7804 55.8063 60.8833 55.4975 60.9971 55.1924C61.0776 54.9756 61.1725 54.7647 61.2436 54.5451C61.274 54.4509 61.2914 54.353 61.3204 54.2581C61.453 53.8203 61.5791 53.3811 61.6741 52.9325C61.6944 52.8361 61.7016 52.7368 61.7205 52.6397C61.8074 52.1888 61.8879 51.7358 61.9372 51.2763C61.9734 50.9378 61.9785 50.5943 61.9937 50.2522C62.0031 50.0304 62.0285 49.8101 62.03 49.5861C62.0321 49.0179 62.0053 48.4453 61.9495 47.8698C61.1421 40.0434 54.6494 33.7328 46.5129 32.8674C41.3763 32.3137 36.2615 33.9154 32.5171 37.2778C28.9932 40.4379 26.9739 44.9127 26.9739 49.5529C26.9739 53.5965 28.4772 57.482 31.2046 60.4922C31.5938 60.9234 31.9316 61.3815 32.2381 61.8533C32.2635 61.8917 32.291 61.9294 32.3157 61.9678H16.0187C15.7433 61.9678 15.4679 61.9164 15.2244 61.8207C14.9562 61.7163 14.6656 61.6924 14.38 61.7526C13.7211 61.8954 13.0435 61.9679 12.3672 61.9679C7.53423 61.9679 3.60379 58.3634 3.60379 53.9342C3.60379 49.5058 7.53516 45.9014 12.3672 45.9014C12.423 45.8999 12.473 45.8985 12.5266 45.9042C12.9985 45.9724 13.471 45.7861 13.7892 45.4324C14.1089 45.0772 14.2342 44.5895 14.127 44.1256C13.9291 43.2682 13.8283 42.3926 13.8283 41.5192C13.8283 35.0765 19.07 29.834 25.5135 29.834C27.3922 29.834 29.2491 30.2863 30.8829 31.1423C31.2924 31.359 31.7816 31.3648 32.1969 31.164C32.6137 30.9618 32.9101 30.5748 32.9957 30.1196C33.9835 24.8757 38.8229 21.0705 44.5018 21.0705C50.1806 21.0705 55.0201 24.8764 56.0087 30.1196C56.0942 30.5748 56.3906 30.9611 56.8074 31.164C57.2227 31.3648 57.7119 31.3597 58.1214 31.1423C59.7544 30.2863 61.6114 29.834 63.49 29.834C69.9328 29.834 75.1752 35.0757 75.1752 41.5192C75.1752 42.3919 75.0737 43.2681 74.8759 44.1256C74.7686 44.5895 74.8947 45.0772 75.2136 45.4324C75.5318 45.7861 76.0065 45.9746 76.4762 45.9042C76.5313 45.8985 76.5799 45.8999 76.6357 45.9014C81.4686 45.9014 85.3991 49.5058 85.3991 53.935C85.3991 58.3634 81.4677 61.9679 76.6357 61.9679L76.635 61.9676Z" fill="#81A1C7"/>
<path d="M50.2798 44.8667C49.7094 44.2963 48.7853 44.2963 48.2141 44.8667L44.5002 48.5813L40.7855 44.8667C40.2151 44.2963 39.291 44.2963 38.7198 44.8667C38.1494 45.4371 38.1494 46.3612 38.7198 46.9324L42.4345 50.6463L38.7198 54.3609C38.1494 54.9314 38.1494 55.8555 38.7198 56.4266C39.0054 56.7115 39.3787 56.8543 39.7527 56.8543C40.1267 56.8543 40.4999 56.7115 40.7855 56.4266L44.5001 52.712L48.2148 56.4266C48.4997 56.7115 48.8736 56.8543 49.2469 56.8543C49.6209 56.8543 49.9942 56.7115 50.2797 56.4266C50.8501 55.8562 50.8501 54.9321 50.2797 54.3609L46.5651 50.6463L50.2797 46.9316C50.8501 46.3612 50.8502 45.4371 50.2798 44.8667Z" fill="#81A1C7"/>
<path d="M69.3299 8.94297C70.1373 8.94297 70.7903 8.28993 70.7903 7.48251C70.7903 5.30957 72.756 3.54261 75.1724 3.54261C77.5062 3.54261 79.5545 5.38431 79.5545 7.48251C79.5545 9.12707 78.4006 10.6136 76.6828 11.1825C74.9056 11.7681 73.711 13.4272 73.711 15.3087V17.2033C73.711 18.0107 74.3641 18.6638 75.1715 18.6638C75.9789 18.6638 76.632 18.0107 76.632 17.2033V15.3087C76.632 14.7941 76.9298 14.1758 77.5988 13.9548C80.5154 12.9894 82.4752 10.3887 82.4752 7.48234C82.4752 3.76343 79.1303 0.620819 75.1722 0.620819C71.1453 0.620819 67.8693 3.69904 67.8693 7.48179C67.8686 8.28921 68.5225 8.94297 69.3299 8.94297Z" fill="#81A1C7"/>
<path d="M75.1728 21.4507C74.3653 21.4507 73.7123 22.1037 73.7123 22.9111L73.7116 23.9911C73.7116 24.7985 74.3646 25.4515 75.172 25.4515C75.9795 25.4515 76.6325 24.7985 76.6325 23.9911V22.9111C76.6332 22.1044 75.9802 21.4507 75.1728 21.4507Z" fill="#81A1C7"/>
<path d="M11.4003 13.9546C12.0678 14.1757 12.3657 14.7939 12.3657 15.3085V17.2031C12.3657 18.0106 13.0188 18.6636 13.8262 18.6636C14.6336 18.6636 15.2866 18.0106 15.2866 17.2031V15.3085C15.2866 13.4269 14.0929 11.7679 12.3171 11.1823C10.5987 10.6126 9.44488 9.12683 9.44488 7.48233C9.44488 5.38398 11.4931 3.54242 13.8269 3.54242C16.2433 3.54242 18.209 5.30946 18.209 7.48233C18.209 8.28975 18.862 8.94278 19.6695 8.94278C20.4769 8.94278 21.1299 8.28975 21.1299 7.48233C21.1299 3.69884 17.8532 0.620804 13.827 0.620804C9.86815 0.620804 6.52329 3.7636 6.52329 7.48233C6.52329 10.3887 8.48304 12.9894 11.4004 13.9548L11.4003 13.9546Z" fill="#81A1C7"/>
<path d="M13.8272 21.4507C13.0198 21.4507 12.3668 22.1037 12.3668 22.9111L12.3661 23.9911C12.3661 24.7985 13.0191 25.4515 13.8265 25.4515C14.6339 25.4515 15.287 24.7985 15.287 23.9911V22.9111C15.2877 22.1044 14.6347 21.4507 13.8272 21.4507Z" fill="#81A1C7"/>
</svg>
