<svg width="101" height="100" viewBox="0 0 101 100" fill="none" xmlns="http://www.w3.org/2000/svg">
<path d="M78.6209 69.3767V44.1518C78.6209 32.0186 70.6577 21.3229 59.4567 17.5644V16.0967C59.4567 11.2115 55.4893 7.23662 50.6113 7.23662C45.7343 7.23662 41.766 11.2115 41.766 16.0967V17.5449C30.4608 21.2932 22.603 31.9244 22.603 44.1517V69.3766C18.4255 70.083 15.2321 73.7304 15.2321 78.1132C15.2321 82.9996 19.2003 86.9732 24.0774 86.9732H39.192C40.5042 92.0633 45.1274 95.8333 50.6125 95.8333C56.0976 95.8333 60.721 92.0633 62.033 86.9732H77.1465C82.0247 86.9732 85.9918 82.9993 85.9918 78.1132C85.9918 73.7318 82.7983 70.0833 78.6209 69.3767ZM77.1464 82.5439H24.0774C21.6394 82.5439 19.6553 80.5564 19.6553 78.1145C19.6553 75.6726 21.6395 73.6851 24.0774 73.6851H77.1464C79.5844 73.6851 81.5685 75.6726 81.5685 78.1145C81.5685 80.5564 79.5843 82.5439 77.1464 82.5439ZM50.6122 91.4031C47.0542 91.4031 44.0755 88.8615 43.3908 85.4968H57.8333C57.1475 88.8626 54.1702 91.4031 50.6122 91.4031ZM50.6122 11.6686C53.0501 11.6686 55.0343 13.6561 55.0343 16.0981V17.9745C53.5907 17.7318 52.1197 17.5749 50.6122 17.5749C49.1023 17.5749 47.6312 17.7318 46.1901 17.9756L46.189 16.0981C46.189 13.6561 48.1731 11.6686 50.6122 11.6686ZM50.6122 20.5278C63.6168 20.5278 74.1985 31.127 74.1985 44.1533V70.7328H27.0253V44.1533C27.0253 31.127 37.6058 20.5278 50.6116 20.5278H50.6122ZM13.5367 28.4561C13.2384 29.2048 12.388 29.5872 11.6222 29.2827C10.8656 28.9816 10.4964 28.1241 10.797 27.3662C14.9631 16.8631 23.3674 8.44473 33.8531 4.27175C34.612 3.96951 35.467 4.34158 35.7664 5.09834C36.067 5.85623 35.6967 6.71489 34.9412 7.01487C25.2075 10.8904 17.4043 18.7065 13.5367 28.4561ZM35.7091 13.0623C36.0795 13.787 35.7937 14.6777 35.0679 15.0497C29.3052 18.0047 24.5068 22.8119 21.5556 28.5845C21.1853 29.3092 20.2972 29.5954 19.5726 29.2257C18.8468 28.8536 18.5611 27.9651 18.9314 27.2382C22.1614 20.9186 27.4156 15.6565 33.725 12.42C34.4485 12.0513 35.3388 12.3376 35.7091 13.0623ZM89.6033 29.2829C88.8695 29.5794 87.9963 29.2279 87.6888 28.4563C83.8186 18.7044 76.0167 10.8904 66.2833 7.01636C65.5255 6.71527 65.1575 5.85776 65.4547 5.09983C65.7564 4.34194 66.6148 3.96983 67.3714 4.27324C77.8559 8.44622 86.2603 16.8646 90.4287 27.3677C90.7304 28.1244 90.3611 28.9818 89.6033 29.2829ZM66.1575 15.05C65.434 14.6779 65.1448 13.7895 65.5163 13.0625C65.8878 12.3389 66.7747 12.0516 67.5017 12.4214C73.8087 15.6579 79.0641 20.9209 82.2906 27.2396C82.6632 27.9643 82.3774 28.855 81.6505 29.2271C80.9213 29.598 80.0367 29.3049 79.6675 28.5848C76.7198 22.8136 71.9215 18.0061 66.1575 15.05Z" fill="#4A9231"/>
</svg>
