<svg width="101" height="100" viewBox="0 0 101 100" fill="none" xmlns="http://www.w3.org/2000/svg">
<path d="M69.2114 71.7852L70.1422 70.9696C76.1717 65.4497 79.6309 57.5907 79.6309 49.413C79.6309 33.2952 66.5045 20.1727 50.3691 20.161C34.2443 20.1717 21.125 33.2934 21.125 49.413C21.125 57.6009 24.5979 65.4782 30.757 71.1102C30.9531 71.2682 31.2178 71.4932 31.475 71.7267C36.0839 75.9298 38.5047 81.423 38.948 83.8941C39.0991 84.7264 39.6988 85.4077 40.5052 85.6595L55.0284 90.2089C55.2542 90.2784 55.4824 90.3127 55.7082 90.3127C56.6741 90.3127 57.569 89.6901 57.8727 88.7197C58.2488 87.5226 57.5805 86.2486 56.3834 85.8748L43.0938 81.7115C41.9699 77.7916 38.8953 72.3472 34.5305 68.3662C34.1971 68.0648 33.8637 67.7787 33.7195 67.6688C28.6025 62.9845 25.6667 56.33 25.6667 49.411C25.6667 35.7948 36.7499 24.7098 50.3699 24.702C64.0021 24.7089 75.0906 35.7944 75.0906 49.411C75.0906 56.3194 72.1701 62.9548 67.1117 67.585L66.1885 68.3983C61.2569 72.8905 60.2078 74.9153 58.9895 78.4669C58.5821 79.654 59.213 80.9464 60.4009 81.3517C61.5858 81.7591 62.8783 81.1281 63.2841 79.9425C64.2378 77.1646 64.8466 75.7669 69.2136 71.7851L69.2114 71.7852Z" fill="#4A9231"/>
<path d="M55.7074 98.9493C56.7176 98.9493 57.6377 98.2695 57.9039 97.2472C58.2183 96.0326 57.4896 94.7929 56.2758 94.48L43.6926 91.2169C42.4796 90.9026 41.2391 91.6312 40.9247 92.845C40.6103 94.0596 41.3389 95.2993 42.5528 95.6122L55.136 98.8745C55.3282 98.9233 55.5182 98.9493 55.7074 98.9493Z" fill="#4A9231"/>
<path d="M65.0193 42.7129C64.5035 42.1125 63.7116 41.8241 62.9304 41.9507L57.6699 42.806L62.4511 35.5511C62.9646 34.7737 62.9493 33.7582 62.413 32.996C61.8789 32.2339 60.9306 31.8745 60.0243 32.0942L46.9735 35.2345C46.2533 35.4077 45.6643 35.9211 45.3927 36.6108L38.7077 53.5825C38.4079 54.3424 38.5414 55.2068 39.0541 55.8401C39.5691 56.4779 40.3831 56.7885 41.1896 56.6557L46.1517 55.8386L43.1328 68.6368C42.8864 69.6783 43.4021 70.7509 44.3688 71.2095C44.6816 71.3598 45.0134 71.4292 45.3423 71.4292C46.0297 71.4292 46.7026 71.1187 47.1451 70.5427C66.8619 44.8552 66.4703 44.4021 65.0193 42.7126L65.0193 42.7129ZM50.0138 59.2496L51.3543 53.5664C51.5298 52.8271 51.323 52.0482 50.805 51.4944C50.3724 51.0297 49.7681 50.7719 49.1448 50.7719C49.0227 50.7719 48.8984 50.7825 48.7748 50.8031L44.3986 51.5234L49.1846 39.3736L55.4933 37.8553L51.0287 44.6309C50.532 45.3847 50.5282 46.359 51.018 47.1151C51.5086 47.8712 52.3997 48.2679 53.2885 48.1229L58.8198 47.2234C56.759 50.1652 53.5554 54.5309 50.0138 59.2496Z" fill="#4A9231"/>
<path d="M4.67773 38.0762C3.42346 38.0762 2.40723 39.0917 2.40723 40.3467V58.3682C2.40723 59.6225 3.42346 60.6387 4.67773 60.6387H12.8344C13.5866 63.1602 14.596 65.6039 15.8473 67.9309L10.0816 73.6918C9.65439 74.1191 9.41559 74.6951 9.41559 75.2986C9.41559 75.9005 9.65439 76.4773 10.0809 76.903L22.8289 89.6487C23.7155 90.533 25.1527 90.533 26.04 89.6487L33.0256 82.6647C33.9121 81.7805 33.9121 80.3423 33.0256 79.4542C32.139 78.5661 30.7018 78.5654 29.815 79.4542L24.434 84.8314L14.8988 75.2983L20.2799 69.9212C21.0161 69.1857 21.158 68.0443 20.6263 67.1495C18.8852 64.2335 17.5874 61.0917 16.7712 57.8142C16.5194 56.8017 15.61 56.093 14.5679 56.093L6.94832 56.0937V42.6164H14.5655C15.6069 42.6164 16.5141 41.9091 16.768 40.899C17.5951 37.6039 18.8929 34.4644 20.6239 31.5621C21.1557 30.6687 21.0145 29.5281 20.2791 28.7926L14.9019 23.4131L24.4379 13.8801L29.8173 19.2619C30.5528 19.9974 31.6942 20.1385 32.589 19.6037C35.4904 17.8695 38.6269 16.5724 41.9152 15.7478C42.9238 15.4968 43.6326 14.5889 43.6333 13.5453L43.6364 5.92732H57.119L57.1213 13.5476C57.1213 14.589 57.8308 15.4954 58.841 15.748C62.1337 16.572 65.2718 17.8681 68.1716 19.6039C69.065 20.1379 70.208 19.996 70.9433 19.2621L76.3251 13.8802L85.8582 23.4133L80.481 28.7927C79.7455 29.5282 79.6021 30.6696 80.1369 31.5623C81.8711 34.4699 83.1682 37.6109 83.9904 40.8976C84.2437 41.9101 85.1516 42.6173 86.193 42.6173H93.8086V56.0962H86.1861C85.1447 56.0962 84.2368 56.8057 83.9857 57.8174C83.1618 61.1057 81.867 64.2459 80.1328 67.1543C79.601 68.0477 79.7445 69.1883 80.4792 69.9239L85.8563 75.301L76.3233 84.834L70.9393 79.4545C70.0528 78.5703 68.6147 78.568 67.7266 79.4568C66.8401 80.3433 66.8401 81.7814 67.7289 82.6695L74.7153 89.6519C75.1608 90.0952 75.7391 90.3149 76.322 90.3149C76.9026 90.3149 77.4832 90.0929 77.9265 89.6496L90.673 76.9039C91.1002 76.4767 91.3382 75.9007 91.3382 75.2995C91.3382 74.6952 91.0994 74.1184 90.673 73.6927L84.9097 67.9318C86.1556 65.6093 87.1634 63.1671 87.9171 60.6396H96.0775C97.3317 60.6396 98.348 59.6241 98.348 58.3691V40.3455C98.348 39.0912 97.3325 38.0749 96.0775 38.0749H87.9208C87.167 35.5466 86.1569 33.1052 84.9118 30.7828L90.6728 25.0195C91.557 24.1329 91.557 22.697 90.6728 21.8089L77.9271 9.064C77.0405 8.17976 75.6046 8.17746 74.7144 9.064L68.9534 14.8273C66.6325 13.5791 64.1888 12.5712 61.6612 11.816L61.6567 3.65717C61.6567 2.40289 60.6412 1.38666 59.3862 1.38666H41.3655C40.1112 1.38666 39.0957 2.40213 39.0949 3.6556L39.0919 11.816C36.5649 12.572 34.1243 13.5814 31.8058 14.8273L26.0425 9.064C25.1567 8.17976 23.7186 8.17976 22.8313 9.064L10.0833 21.8097C9.65758 22.2347 9.41803 22.813 9.41803 23.4142C9.41803 24.0154 9.65836 24.5952 10.0833 25.0186L15.8458 30.7819C14.6022 33.1028 13.5937 35.5442 12.8353 38.0741L4.67705 38.0748L4.67773 38.0762Z" fill="#4A9231"/>
</svg>
