<svg width="101" height="100" viewBox="0 0 101 100" fill="none" xmlns="http://www.w3.org/2000/svg">
<path d="M74.377 7.41211H63.7988C63.6401 5.93582 62.942 4.57012 61.8381 3.57676C60.7341 2.58418 59.3029 2.03334 57.8182 2.03027H43.1813C41.6966 2.03333 40.2652 2.58416 39.1613 3.57676C38.0581 4.5701 37.3593 5.93574 37.2006 7.41211H26.6225C24.6693 7.41211 22.7963 8.18803 21.4146 9.56894C20.0337 10.9499 19.2578 12.8229 19.2578 14.7768V90.6068C19.2578 92.56 20.0337 94.433 21.4146 95.8146C22.7963 97.1956 24.6693 97.9715 26.6225 97.9715H74.3764C76.3295 97.9715 78.2033 97.1956 79.5842 95.8146C80.9651 94.433 81.741 92.56 81.741 90.6068V14.7768C81.741 12.8229 80.9651 10.9498 79.5842 9.56894C78.2033 8.18803 76.3295 7.41211 74.3764 7.41211H74.377ZM77.1289 90.6074L77.1297 90.6066C77.1297 92.1264 75.8975 93.3586 74.3769 93.3586H26.623C25.1033 93.3586 23.8711 92.1265 23.8711 90.6066V14.7766C23.8711 13.256 25.1032 12.0238 26.623 12.0238H39.4609C40.735 12.0238 41.7674 10.9916 41.7674 9.7174V8.04199C41.7674 7.26914 42.3937 6.64275 43.1666 6.64275H57.8189C58.5918 6.64275 59.2182 7.26912 59.2182 8.04199V9.7174C59.2182 10.9915 60.2504 12.0238 61.5246 12.0238H74.3625C75.8823 12.0238 77.1145 13.256 77.1145 14.7766L77.1289 90.6074Z" fill="#4A9231"/>
<path d="M71.502 15.9746H29.4961C28.2228 15.9746 27.1904 17.0076 27.1904 18.2811V87.0994C27.1904 88.3735 28.2227 89.4059 29.4961 89.4059H71.502C72.7753 89.4059 73.8084 88.3736 73.8084 87.0994V18.2811C73.8084 17.0077 72.7754 15.9746 71.502 15.9746ZM69.1955 84.8086L31.8029 84.8094V20.5867H69.1955V84.8086Z" fill="#4A9231"/>
<path d="M42.1211 53.1973H54.9285L44.0886 72.4623C43.7484 72.9964 43.6423 73.6472 43.7957 74.2621C43.9498 74.877 44.3496 75.4011 44.9012 75.7124C45.4535 76.0229 46.1089 76.0931 46.7147 75.9062C47.3197 75.7185 47.8217 75.2905 48.1017 74.7229L60.8939 52.0295C61.299 51.3139 61.2937 50.4373 60.8786 49.727C60.4636 49.0175 59.7014 48.5826 58.8798 48.5856H46.18L55.4046 32.9645C55.7296 32.4381 55.8288 31.8034 55.6808 31.2022C55.5336 30.6017 55.1506 30.086 54.618 29.7701C54.0863 29.4543 53.4492 29.3658 52.8518 29.5245C52.2537 29.6824 51.744 30.0745 51.4381 30.6117L40.0604 49.7226V49.7234C39.6339 50.4367 39.624 51.324 40.0344 52.0466C40.4449 52.7691 41.2132 53.2147 42.044 53.2131L42.1211 53.1973Z" fill="#4A9231"/>
</svg>
