<svg width="101" height="100" viewBox="0 0 101 100" fill="none" xmlns="http://www.w3.org/2000/svg">
<path d="M95.088 19.2499H58.1876C57.3385 19.2499 56.6503 19.9381 56.6503 20.7873V34.6248C56.6503 35.1191 56.8884 35.5822 57.2889 35.8714C57.6894 36.1598 58.2044 36.2384 58.6736 36.0827L60.6062 35.4388V35.438C61.8238 35.0398 63.1581 35.2488 64.1958 36.0011C65.2326 36.7526 65.8468 37.9566 65.8468 39.2374C65.8468 40.5184 65.2326 41.7224 64.1958 42.4737C63.1582 43.226 61.8237 43.4351 60.6062 43.0368L58.6736 42.3929V42.3921C58.2044 42.2365 57.6894 42.315 57.2889 42.6034C56.8884 42.8918 56.6503 43.3557 56.6503 43.8501V56.1503H44.3501C43.8558 56.1503 43.3919 56.3883 43.1035 56.7888C42.8151 57.1894 42.7365 57.7044 42.8922 58.1736L43.5361 60.1061H43.5369C43.9351 61.3237 43.7261 62.658 42.9738 63.6957C42.2223 64.7326 41.0183 65.3467 39.7375 65.3467C38.4565 65.3467 37.2525 64.7326 36.5012 63.6957C35.7489 62.6581 35.5398 61.3237 35.9381 60.1061L36.582 58.1736H36.5828C36.7384 57.7044 36.6598 57.1894 36.3715 56.7888C36.0823 56.3883 35.6192 56.1503 35.1248 56.1503H21.2873C20.4382 56.1503 19.75 56.8384 19.75 57.6876V94.588C19.75 94.9954 19.9117 95.3868 20.2001 95.6752C20.4885 95.9628 20.8799 96.1253 21.2873 96.1253H95.0881C95.4955 96.1253 95.8869 95.9628 96.1753 95.6752C96.4629 95.3868 96.6254 94.9954 96.6254 94.588V20.7872C96.6254 20.3798 96.4629 19.9884 96.1753 19.7C95.8869 19.4116 95.4954 19.2499 95.088 19.2499ZM66.0119 44.9785C67.8605 43.6601 68.9636 41.5337 68.9775 39.2632C68.9912 36.9935 67.9147 34.8542 66.0822 33.513C64.2504 32.1725 61.8853 31.7926 59.7253 32.4922V22.3244H93.5496V56.1506H83.3826C84.0601 54.0014 83.6733 51.6584 82.3412 49.841C81.0083 48.0237 78.8904 46.9502 76.6375 46.9502C74.3837 46.9502 72.2658 48.0237 70.9337 49.841C69.6009 51.6584 69.2148 54.0014 69.8923 56.1506H59.7246V45.9828C61.8601 46.6748 64.1976 46.301 66.0113 44.9788L66.0119 44.9785ZM22.8244 59.2247H32.9921C32.3146 61.374 32.7015 63.7169 34.0336 65.5335C35.3656 67.3509 37.4843 68.4244 39.7373 68.4244C41.9902 68.4244 44.1089 67.3509 45.441 65.5335C46.7731 63.717 47.1599 61.374 46.4824 59.2247H56.6502V71.5249C56.6502 72.0186 56.8882 72.4824 57.2887 72.7716C57.6893 73.06 58.2043 73.1385 58.6735 72.9821L60.606 72.3382C61.8236 71.94 63.1579 72.149 64.1956 72.9005C65.2325 73.6528 65.8466 74.856 65.8466 76.1376C65.8466 77.4186 65.2325 78.6218 64.1956 79.3739C63.158 80.1254 61.8235 80.3353 60.606 79.9362L58.6735 79.2923C58.2043 79.1359 57.6893 79.2145 57.2887 79.5036C56.8882 79.792 56.6502 80.2559 56.6502 80.7495V93.0497H22.824L22.8244 59.2247ZM93.549 93.049H59.7248V82.882C61.874 83.5595 64.2169 83.1726 66.0336 81.8406C67.8509 80.5077 68.9244 78.3898 68.9244 76.1368C68.9244 73.8831 67.8509 71.7652 66.0336 70.4331C64.217 69.1003 61.874 68.7142 59.7248 69.3917V59.224H72.025C72.5186 59.224 72.9824 58.9859 73.2716 58.5854C73.56 58.1841 73.6386 57.6691 73.4822 57.2007L72.8382 55.2681C72.44 54.0505 72.649 52.7154 73.4005 51.6785C74.1528 50.6409 75.356 50.0267 76.6376 50.0267C77.9186 50.0267 79.1218 50.6409 79.874 51.6785C80.6255 52.7153 80.8353 54.0506 80.4363 55.2681L79.7923 57.2007C79.6359 57.6691 79.7145 58.1841 80.0037 58.5854C80.2921 58.9859 80.7559 59.224 81.2495 59.224H93.5497L93.549 93.049Z" fill="#4A9231"/>
<path d="M5.9119 43.8496H17.617C16.9387 45.998 17.3255 48.341 18.6584 50.1584C19.9905 51.9757 22.1084 53.0492 24.3621 53.0492C26.615 53.0492 28.733 51.9757 30.0658 50.1584C31.3979 48.341 31.7847 45.998 31.1064 43.8496H42.8115C43.2197 43.8496 43.6103 43.6871 43.8987 43.3987C44.1871 43.1103 44.3496 42.7197 44.3496 42.3115V30.6064C46.498 31.2847 48.841 30.8979 50.6584 29.5658C52.4757 28.2329 53.5492 26.115 53.5492 23.8621C53.5492 21.6083 52.4758 19.4904 50.6584 18.1584C48.8411 16.8255 46.498 16.4387 44.3496 17.1169V5.41187C44.3496 5.0037 44.1871 4.61308 43.8987 4.32468C43.6103 4.03628 43.2197 3.87378 42.8115 3.87378H5.91113C5.06197 3.87378 4.37305 4.56271 4.37305 5.41187V42.3123C4.37305 42.7204 4.53555 43.111 4.82394 43.3994C5.11234 43.6878 5.50297 43.8503 5.91113 43.8503L5.9119 43.8496ZM7.44922 6.94919H41.2734V19.2494C41.2742 19.743 41.5115 20.2069 41.9128 20.4953C42.3133 20.7844 42.8283 20.863 43.2967 20.7066L45.2293 20.0627C46.4469 19.6644 47.782 19.8735 48.8197 20.625C49.8565 21.3772 50.4707 22.5804 50.4707 23.8621C50.4707 25.143 49.8565 26.3462 48.8197 27.0984C47.7821 27.8499 46.447 28.0597 45.2293 27.6607L43.2967 27.0167C42.8283 26.8603 42.3133 26.9389 41.9128 27.2281C41.5115 27.5165 41.2742 27.9803 41.2734 28.474V40.7742H28.9732C28.4796 40.7749 28.0158 41.0122 27.7274 41.4135C27.4382 41.814 27.3596 42.329 27.516 42.7975L28.16 44.73C28.559 45.9476 28.3492 47.2827 27.5977 48.3204C26.8454 49.3572 25.6422 49.9714 24.3613 49.9714C23.0796 49.9714 21.8764 49.3572 21.1242 48.3204C20.3727 47.2828 20.1637 45.9477 20.562 44.73L21.2059 42.7975C21.3623 42.329 21.2837 41.814 20.9946 41.4135C20.7062 41.0122 20.2423 40.7749 19.7487 40.7742H7.44848L7.44922 6.94919Z" fill="#4A9231"/>
</svg>
