<svg width="101" height="100" viewBox="0 0 101 100" fill="none" xmlns="http://www.w3.org/2000/svg">
<path d="M88.1773 14.084H12.8219C10.6803 14.0863 8.62656 14.9385 7.11211 16.4529C5.59768 17.9674 4.74629 20.0205 4.74316 22.1627V82.7565C4.74622 84.8988 5.59766 86.9518 7.11211 88.4662C8.62654 89.9807 10.6805 90.8328 12.8219 90.8352H88.1773C90.3197 90.8329 92.3727 89.9807 93.8871 88.4662C95.4015 86.9518 96.2537 84.8986 96.2561 82.7565V22.1627C96.2538 20.0203 95.4016 17.9674 93.8871 16.4529C92.3727 14.9385 90.3195 14.0863 88.1773 14.084ZM7.69492 22.1627C7.69797 20.8031 8.23891 19.5008 9.19943 18.5402C10.1607 17.5789 11.4631 17.038 12.8219 17.0357H88.1774C89.5362 17.038 90.8393 17.5789 91.7998 18.5402C92.7604 19.5008 93.3013 20.8031 93.3043 22.1627V31.3531H7.69496L7.69492 22.1627ZM93.3024 82.7584L93.3031 82.7576C93.3001 84.1172 92.7591 85.4196 91.7986 86.3801C90.838 87.3414 89.5349 87.8823 88.1761 87.8846H12.8207C11.4619 87.8823 10.1595 87.3414 9.1982 86.3801C8.23766 85.4196 7.69674 84.1172 7.69369 82.7576V34.3065H93.3011L93.3024 82.7584ZM16.8551 19.6725C15.6229 19.6725 14.4412 20.1623 13.5699 21.0343C12.6987 21.9063 12.2096 23.0882 12.2104 24.3203C12.2119 25.5532 12.7025 26.7341 13.5745 27.6046C14.4465 28.4751 15.6292 28.9634 16.862 28.9619C18.0942 28.9596 19.2751 28.4683 20.145 27.5955C21.0149 26.7227 21.5023 25.5394 21.5 24.3072C21.5 23.0766 21.0102 21.8963 20.1389 21.0265C19.2676 20.1575 18.0858 19.67 16.8553 19.6723L16.8551 19.6725ZM16.8551 26.0004C16.1707 26.0004 15.5535 25.5876 15.2911 24.9551C15.0294 24.3227 15.1743 23.5948 15.658 23.1111C16.1425 22.6266 16.8703 22.4817 17.5028 22.7441C18.1353 23.0058 18.5473 23.6231 18.5473 24.3074C18.5473 24.7568 18.3695 25.1871 18.0521 25.5045C17.7347 25.8218 17.3037 26.0004 16.8551 26.0004ZM28.7219 19.6725C27.489 19.6702 26.3057 20.1577 25.4328 21.0282C24.56 21.8987 24.0687 23.0813 24.0679 24.3141C24.0671 25.5471 24.5562 26.7296 25.4282 27.6016C26.3003 28.4729 27.4829 28.9627 28.7157 28.962C29.9485 28.9612 31.1304 28.4699 32.0009 27.5971C32.8714 26.7235 33.3597 25.5402 33.3566 24.3072C33.3543 23.0789 32.8653 21.9017 31.9963 21.0326C31.1281 20.1644 29.95 19.6753 28.7217 19.6723L28.7219 19.6725ZM28.7219 26.0004C28.0368 26.0042 27.4165 25.5945 27.1517 24.962C26.8862 24.3303 27.0289 23.6002 27.5119 23.1142C27.9956 22.6282 28.7242 22.4817 29.3574 22.7426C29.9914 23.0043 30.4049 23.6223 30.4049 24.3074C30.4049 25.2382 29.6534 25.9943 28.7219 26.0004ZM40.5795 19.6725C39.3473 19.6725 38.1656 20.1623 37.2943 21.0343C36.4231 21.9063 35.934 23.0882 35.9348 24.3203C35.9355 25.5532 36.4269 26.7341 37.2989 27.6046C38.171 28.4751 39.3536 28.9634 40.5864 28.9619C41.8186 28.9596 42.9995 28.4683 43.8694 27.5955C44.7394 26.7227 45.2267 25.5394 45.2244 24.3072C45.2244 23.0766 44.7346 21.8963 43.8633 21.0265C42.992 20.1575 41.8102 19.67 40.5797 19.6723L40.5795 19.6725ZM40.5795 26.0004C39.8951 26.0004 39.2779 25.5876 39.0155 24.9551C38.7538 24.3227 38.8987 23.5948 39.3824 23.1111C39.8669 22.6266 40.5947 22.4817 41.2272 22.7441C41.8597 23.0058 42.2717 23.6231 42.2717 24.3074C42.2717 25.242 41.5141 26.0004 40.5795 26.0004ZM16.5111 52.3805L30.917 57.0344L29.3522 64.5814L28.1612 70.3187C28.0277 70.9909 28.3688 71.6684 28.9883 71.9621C35.5861 75.1352 42.8027 76.8153 50.125 76.8822C54.6043 76.8754 59.0605 76.233 63.3598 74.9734L65.4555 82.6585C65.5951 83.1659 65.9941 83.5603 66.503 83.6946C67.0126 83.8281 67.5543 83.6809 67.9251 83.3078L70.9364 80.2965L76.4761 85.8361C77.0521 86.4121 77.9859 86.4121 78.562 85.8361L84.9386 79.5189C85.5031 78.9383 85.5031 78.0137 84.9386 77.433L79.3493 71.8437L82.3606 68.8324C82.5811 68.6043 82.7223 68.3113 82.7642 67.9962H86.9062C87.3426 67.9993 87.7569 67.8085 88.0384 67.4751C88.3184 67.1463 88.4382 66.7099 88.3627 66.2842L87.6837 62.1811C87.6142 61.309 87.274 60.4805 86.7117 59.8098C86.1494 59.1399 85.3918 58.6615 84.5449 58.4418V51.7211C84.7814 51.3389 84.8287 50.8697 84.6731 50.4485C84.5174 50.0274 84.1756 49.7016 83.7476 49.5658L50.5777 38.8504C50.284 38.752 49.9658 38.752 49.6721 38.8504L16.5119 49.5658C15.8978 49.7604 15.4812 50.3295 15.4812 50.9727C15.4812 51.6166 15.8978 52.1857 16.5119 52.3803L16.5111 52.3805ZM31.2709 69.758L31.8515 66.9244V66.9237C37.6429 69.2963 43.8357 70.5362 50.0949 70.5742C54.0287 70.5674 57.9455 70.0684 61.7548 69.0888L62.5712 72.0405H62.5719C52.2135 75.0739 41.109 74.263 31.3005 69.7577L31.2709 69.758ZM61.7748 60.9018C61.2621 60.766 60.7151 60.9117 60.3382 61.2855C59.9659 61.6594 59.8232 62.2041 59.9643 62.7122L60.9485 66.2247V66.2255C51.4751 68.6188 41.4776 67.8376 32.4915 64.0014L33.771 57.9499L49.7018 63.1057C49.8475 63.153 50.0009 63.1767 50.1542 63.1744C50.3083 63.1759 50.4609 63.153 50.6067 63.1057L66.5278 57.9499L67.4624 62.4565L61.7748 60.9018ZM81.5326 58.4223C80.698 58.6321 79.948 59.0959 79.3881 59.7498C78.8273 60.4036 78.484 61.2154 78.4039 62.073L77.863 65.3101L70.5815 63.3418L69.2731 57.0445L81.5334 53.1086L81.5326 58.4223ZM81.6997 78.4066L77.4684 82.6479L71.9288 77.1082V77.1074C71.3528 76.5322 70.4189 76.5322 69.8429 77.1074L67.5892 79.3612L63.5456 64.4533L78.4733 68.5465L76.2196 70.8002C75.9396 71.0749 75.7832 71.451 75.7863 71.8431C75.7824 72.2353 75.9389 72.6122 76.2196 72.8861L81.6997 78.4066ZM84.6515 62.5643L85.0551 65.024H81.0015L81.425 62.4758C81.5036 61.8067 81.927 61.2848 82.4092 61.2848H83.797C84.2288 61.3047 84.6621 61.8067 84.7506 62.5841L84.6515 62.5643ZM50.1241 41.8025L73.9171 49.4975H50.1241C49.3085 49.4975 48.6478 50.1582 48.6478 50.973C48.6478 51.7886 49.3085 52.4493 50.1241 52.4493H73.9171L50.1241 60.1542L21.7647 50.9829L50.1241 41.8025ZM42.1339 81.9803C42.1339 82.7951 41.4732 83.4558 40.6576 83.4558H36.3875C35.5719 83.4558 34.9112 82.7951 34.9112 81.9803C34.9112 81.1647 35.5719 80.504 36.3875 80.504H40.6576C41.4732 80.504 42.1339 81.1647 42.1339 81.9803ZM12.1222 79.6381V73.3697C12.1222 72.5549 12.7829 71.8942 13.5985 71.8942C14.4133 71.8942 15.0747 72.5549 15.0747 73.3697V79.6381C15.0717 79.8685 15.1617 80.0905 15.325 80.253C15.4882 80.4163 15.7095 80.5063 15.9407 80.504H28.7328H28.7321C29.5477 80.504 30.2084 81.1647 30.2084 81.9803C30.2084 82.7951 29.5477 83.4558 28.7321 83.4558H15.9399H15.9407C14.9275 83.4558 13.9563 83.0538 13.2407 82.3374C12.525 81.6217 12.1222 80.6505 12.1222 79.6381Z" fill="#4A9231"/>
</svg>
