<svg width="101" height="100" viewBox="0 0 101 100" fill="none" xmlns="http://www.w3.org/2000/svg">
<path d="M5.31876 49.0879C5.00442 49.6555 5.00442 50.3445 5.31876 50.9121C14.6365 67.8599 31.9516 78.3847 50.5004 78.3847C69.0492 78.3847 86.3637 67.8599 95.6801 50.9121C95.9944 50.3445 95.9944 49.6555 95.6801 49.0879C86.3623 32.1406 69.0473 21.6152 50.5004 21.6152C31.9518 21.6152 14.6371 32.1408 5.31876 49.0879ZM91.85 50.0004C86.7787 58.7918 79.3644 65.6269 70.7621 69.8422C75.7762 64.7176 78.8836 57.7199 78.8836 50.0004C78.8836 42.2795 75.7762 35.2818 70.7621 30.1586C79.3643 34.3738 86.7785 41.209 91.85 50.0004ZM50.5004 25.4008C64.0646 25.4008 75.1 36.4367 75.1 50.0004C75.1 63.564 64.0641 74.6 50.5004 74.6C36.9361 74.5992 25.9008 63.5633 25.9008 50.0004C25.9008 36.4361 36.9367 25.4008 50.5004 25.4008ZM30.2367 30.1576C25.2219 35.2822 22.1145 42.2799 22.1145 50.0013C22.1145 57.7228 25.2219 64.7199 30.2359 69.8431C21.6338 65.6271 14.2195 58.792 9.14806 50.0013C14.2193 41.2092 21.6336 34.374 30.2359 30.1576H30.2367Z" fill="#4A9231"/>
<path d="M46.9731 57.4512C47.3286 57.8067 47.8093 58.0036 48.3128 58.0036C48.8164 58.0036 49.297 57.8029 49.6525 57.4512L60.3254 46.7822C61.0631 46.0445 61.0631 44.8444 60.3254 44.1067C59.5876 43.3689 58.3875 43.3689 57.6498 44.1067L48.3168 53.4397L44.2748 49.3977C43.537 48.6599 42.3369 48.6599 41.5992 49.3977C40.8615 50.1354 40.8615 51.3355 41.5992 52.0733L46.9731 57.4512Z" fill="#4A9231"/>
<path d="M52.3926 14.045V6.47583C52.3926 5.43136 51.545 4.58374 50.5005 4.58374C49.456 4.58374 48.6084 5.43136 48.6084 6.47583V14.045C48.6076 15.0894 49.4553 15.9371 50.5005 15.9371C51.545 15.9371 52.3926 15.0894 52.3926 14.045Z" fill="#4A9231"/>
<path d="M52.3926 93.5235V85.9543C52.3926 84.9099 51.545 84.0623 50.5005 84.0623C49.456 84.0623 48.6084 84.9099 48.6084 85.9543V93.5235C48.6084 94.568 49.456 95.4156 50.5005 95.4156C51.545 95.4163 52.3926 94.568 52.3926 93.5235Z" fill="#4A9231"/>
<path d="M77.2621 25.9141L82.6172 20.5629C83.3549 19.8251 83.3549 18.625 82.6172 17.8873C81.8794 17.1495 80.6793 17.1495 79.9416 17.8873L74.5865 23.2385C73.8488 23.9762 73.8488 25.1763 74.5865 25.9141C74.9573 26.2848 75.4418 26.4664 75.9263 26.4664C76.4107 26.4672 76.8913 26.2818 77.2621 25.9141Z" fill="#4A9231"/>
<path d="M23.7385 74.086L18.3834 79.4372C17.6456 80.1749 17.6456 81.375 18.3834 82.1127C18.7542 82.4835 19.2386 82.6651 19.7231 82.6651C20.2076 82.6651 20.692 82.4797 21.0628 82.1127L26.4179 76.7616C27.1557 76.0238 27.1557 74.8237 26.4179 74.086C25.6802 73.3475 24.4809 73.3475 23.7385 74.086Z" fill="#4A9231"/>
<path d="M25.0782 26.4668C25.5627 26.4668 26.0472 26.2814 26.418 25.9145C27.1557 25.1767 27.1557 23.9766 26.418 23.2389L21.0629 17.8869C20.3251 17.1492 19.125 17.1492 18.3873 17.8869C17.6495 18.6247 17.6495 19.8248 18.3873 20.5625L23.7424 25.9137C24.1093 26.2814 24.5938 26.4668 25.0782 26.4668Z" fill="#4A9231"/>
<path d="M74.5865 74.086C73.8488 74.8237 73.8488 76.0239 74.5865 76.7616L79.9416 82.1127C80.3124 82.4835 80.7969 82.6651 81.2813 82.6651C81.7658 82.6651 82.2502 82.4797 82.621 82.1127C83.3588 81.375 83.3588 80.1749 82.621 79.4372L77.266 74.086C76.5206 73.3475 75.3243 73.3475 74.5865 74.086Z" fill="#4A9231"/>
<path d="M37.0086 18.5645C37.2474 18.5645 37.4854 18.5187 37.7204 18.4279C38.6893 18.0342 39.1547 16.9295 38.7649 15.9644L35.9268 8.94762C35.5293 7.9787 34.4276 7.51711 33.4586 7.90315C32.4897 8.29682 32.0243 9.39774 32.4141 10.3666L35.2522 17.3834C35.5513 18.1181 36.2632 18.5645 37.0086 18.5645Z" fill="#4A9231"/>
<path d="M66.8301 92.2324C67.0689 92.2324 67.3069 92.1867 67.5419 92.0959C68.5108 91.7022 68.9762 90.5975 68.5863 89.6324L65.7483 82.6156C65.3546 81.6428 64.2498 81.1813 63.2848 81.5711C62.3159 81.9648 61.8504 83.0696 62.2403 84.0346L65.0784 91.0514C65.3767 91.7854 66.0839 92.2324 66.8301 92.2324Z" fill="#4A9231"/>
<path d="M63.9925 18.5645C64.7379 18.5645 65.4497 18.1182 65.745 17.3796L68.5831 10.3628C68.9767 9.39392 68.5075 8.29292 67.5386 7.89937C66.5658 7.51331 65.4649 7.97871 65.0751 8.94384L62.237 15.9606C61.8433 16.9296 62.3125 18.0306 63.2815 18.4241C63.5157 18.5225 63.7545 18.5645 63.9925 18.5645Z" fill="#4A9231"/>
<path d="M37.7192 81.5704C36.7503 81.1843 35.6456 81.6497 35.2558 82.6149L32.4177 89.6317C32.024 90.6006 32.4932 91.7016 33.4622 92.0951C33.6971 92.1859 33.9352 92.2317 34.174 92.2317C34.9194 92.2317 35.6312 91.7854 35.9264 91.0469L38.7645 84.0301C39.1536 83.0649 38.6882 81.9641 37.7192 81.5704Z" fill="#4A9231"/>
</svg>
