<svg width="101" height="100" viewBox="0 0 101 100" fill="none" xmlns="http://www.w3.org/2000/svg">
<path d="M78.176 5.41211C78.176 6.26127 77.4878 6.94943 76.6387 6.94943C75.7895 6.94943 75.1006 6.26127 75.1006 5.41211C75.1006 4.56295 75.7895 3.87402 76.6387 3.87402C77.4878 3.87402 78.176 4.56295 78.176 5.41211Z" fill="#4A9231"/>
<path d="M12.0625 6.94919H70.4883C71.3374 6.94919 72.0256 6.26103 72.0256 5.41187C72.0256 4.56271 71.3374 3.87378 70.4883 3.87378H12.0625C11.2133 3.87378 10.5244 4.56271 10.5244 5.41187C10.5244 6.26103 11.2133 6.94919 12.0625 6.94919Z" fill="#4A9231"/>
<path d="M95.0879 43.8496C94.2387 43.8496 93.5498 44.5377 93.5498 45.3869V89.9748C93.5498 91.0734 92.9639 92.0881 92.0125 92.6375C91.0611 93.1868 89.8892 93.1868 88.9379 92.6375C87.9865 92.0882 87.3998 91.0735 87.3998 89.9748V16.174C87.3983 14.5436 86.7498 12.9803 85.597 11.8275C84.4434 10.6747 82.8809 10.0262 81.2497 10.0239H10.5251C8.89467 10.0262 7.33133 10.6747 6.17859 11.8275C5.0258 12.9803 4.37729 14.5435 4.375 16.174V89.9748C4.37729 91.6052 5.02578 93.1685 6.17859 94.3213C7.33139 95.4741 8.89461 96.1226 10.5251 96.1249H81.2497C82.0989 96.1249 82.7878 95.4367 82.7878 94.5875C82.7878 93.7384 82.0989 93.0495 81.2497 93.0495H10.5251C9.71025 93.0487 8.92824 92.7244 8.35223 92.1484C7.77545 91.5716 7.45119 90.7896 7.45043 89.9748V25.4006H79.7122C80.5613 25.4006 81.2495 24.7124 81.2495 23.8632C81.2495 23.0141 80.5613 22.3252 79.7122 22.3252H7.45043V16.1752C7.45119 15.3603 7.77545 14.5783 8.35223 14.0023C8.92824 13.4255 9.71025 13.1013 10.5251 13.1005H81.2497C82.0653 13.1013 82.8465 13.4255 83.4233 14.0023C84.0001 14.5783 84.3244 15.3603 84.3251 16.1752V89.9759C84.3251 92.1732 85.497 94.2035 87.3997 95.3021C89.3025 96.4007 91.647 96.4007 93.5497 95.3021C95.4525 94.2035 96.6251 92.1732 96.6251 89.9759V45.388C96.6251 44.9799 96.4626 44.5893 96.175 44.3009C95.8866 44.0125 95.4952 43.8507 95.0878 43.8507L95.0879 43.8496Z" fill="#4A9231"/>
<path d="M13.5998 17.7129C13.5998 18.5621 12.9117 19.2502 12.0625 19.2502C11.2133 19.2502 10.5244 18.5621 10.5244 17.7129C10.5244 16.8637 11.2133 16.1748 12.0625 16.1748C12.9117 16.1748 13.5998 16.8637 13.5998 17.7129Z" fill="#4A9231"/>
<path d="M19.7502 17.7129C19.7502 18.5621 19.0621 19.2502 18.2129 19.2502C17.3637 19.2502 16.6748 18.5621 16.6748 17.7129C16.6748 16.8637 17.3637 16.1748 18.2129 16.1748C19.0621 16.1748 19.7502 16.8637 19.7502 17.7129Z" fill="#4A9231"/>
<path d="M25.9006 17.7129C25.9006 18.5621 25.2124 19.2502 24.3633 19.2502C23.5141 19.2502 22.8252 18.5621 22.8252 17.7129C22.8252 16.8637 23.5141 16.1748 24.3633 16.1748C25.2124 16.1748 25.9006 16.8637 25.9006 17.7129Z" fill="#4A9231"/>
<path d="M44.3492 48.4609C44.3492 48.0535 44.1867 47.6621 43.8983 47.3737C43.6099 47.0853 43.2193 46.9236 42.8111 46.9236H41.1861H41.1868C40.8336 43.8062 39.4328 40.9009 37.215 38.6831C34.9964 36.4646 32.0911 35.0646 28.9738 34.7113V33.0862C28.9738 32.2371 28.2856 31.5489 27.4364 31.5489C26.5873 31.5489 25.8991 32.2371 25.8991 33.0862V34.7113C21.5739 35.1904 17.7272 37.6761 15.5124 41.4212C13.2983 45.1673 12.9749 49.7357 14.6396 53.7564C16.3043 57.7763 19.7626 60.7792 23.9773 61.8626C28.1909 62.946 32.6695 61.9847 36.0667 59.2656L37.112 60.3108C37.7124 60.9112 38.6859 60.9112 39.2864 60.3108C39.8868 59.7104 39.8868 58.7369 39.2864 58.1364L38.2411 57.0912C39.8754 55.054 40.897 52.5945 41.1868 49.999H42.8111C43.2193 49.999 43.6099 49.8365 43.8983 49.5481C44.1867 49.2597 44.3492 48.8691 44.3492 48.4609ZM38.0877 46.9236H28.9736V37.8103C31.2717 38.146 33.3994 39.2141 35.042 40.856C36.6838 42.4978 37.752 44.6257 38.0869 46.9236H38.0877ZM27.4363 59.2238C23.7766 59.2207 20.3692 57.3584 18.391 54.2792C16.4119 51.1999 16.1342 47.3265 17.6525 43.997C19.1708 40.6667 22.2775 38.3361 25.8992 37.8103V48.4609C25.8992 48.869 26.0609 49.2597 26.3493 49.5481L33.8788 57.0776C32.0211 58.473 29.7597 59.226 27.4366 59.2237L27.4363 59.2238ZM36.0529 54.9033L31.1481 49.9992H38.0869C37.8313 51.7783 37.1317 53.4652 36.0529 54.9033Z" fill="#4A9231"/>
<path d="M55.1118 36.1621C55.1118 37.0112 54.4236 37.7002 53.5744 37.7002C52.7253 37.7002 52.0371 37.0112 52.0371 36.1621C52.0371 35.3129 52.7253 34.6248 53.5744 34.6248C54.4236 34.6248 55.1118 35.3129 55.1118 36.1621Z" fill="#4A9231"/>
<path d="M76.6367 34.625H59.7239C58.8747 34.625 58.1865 35.3132 58.1865 36.1623C58.1865 37.0115 58.8747 37.7004 59.7239 37.7004H76.6367C77.4859 37.7004 78.1741 37.0115 78.1741 36.1623C78.1741 35.3132 77.4859 34.625 76.6367 34.625Z" fill="#4A9231"/>
<path d="M76.6367 40.7754H50.5C49.6508 40.7754 48.9619 41.4636 48.9619 42.3127C48.9619 43.1619 49.6508 43.8508 50.5 43.8508H76.6367C77.4859 43.8508 78.174 43.1619 78.174 42.3127C78.174 41.4636 77.4859 40.7754 76.6367 40.7754Z" fill="#4A9231"/>
<path d="M76.6367 46.9238H50.5C49.6508 46.9238 48.9619 47.612 48.9619 48.4612C48.9619 49.3103 49.6508 49.9992 50.5 49.9992H76.6367C77.4859 49.9992 78.174 49.3103 78.174 48.4612C78.174 47.612 77.4859 46.9238 76.6367 46.9238Z" fill="#4A9231"/>
<path d="M73.5627 54.6113C73.5627 54.2039 73.401 53.8125 73.1126 53.5241C72.8242 53.2357 72.4328 53.074 72.0254 53.074H50.5C49.6508 53.074 48.9619 53.7621 48.9619 54.6113C48.9619 55.4605 49.6508 56.1494 50.5 56.1494H72.0254C72.4328 56.1494 72.8242 55.9869 73.1126 55.6985C73.401 55.4101 73.5627 55.0195 73.5627 54.6113Z" fill="#4A9231"/>
<path d="M19.7502 73.0625C19.7502 73.9116 19.0621 74.5998 18.2129 74.5998C17.3637 74.5998 16.6748 73.9116 16.6748 73.0625C16.6748 72.2133 17.3637 71.5251 18.2129 71.5251C19.0621 71.5251 19.7502 72.2133 19.7502 73.0625Z" fill="#4A9231"/>
<path d="M41.2754 71.5254H24.3633C23.5141 71.5254 22.8252 72.2136 22.8252 73.0627C22.8252 73.9119 23.5141 74.6 24.3633 74.6H41.2762H41.2754C42.1246 74.6 42.8127 73.9119 42.8127 73.0627C42.8127 72.2136 42.1246 71.5254 41.2754 71.5254Z" fill="#4A9231"/>
<path d="M42.8129 79.2129C42.8129 78.8055 42.6512 78.4141 42.3628 78.1257C42.0744 77.8373 41.6838 77.6755 41.2756 77.6755H15.1389C14.2897 77.6755 13.6016 78.3637 13.6016 79.2129C13.6016 80.062 14.2897 80.7502 15.1389 80.7502H41.2756C41.6838 80.7502 42.0744 80.5884 42.3628 80.3C42.6512 80.0117 42.8129 79.621 42.8129 79.2129Z" fill="#4A9231"/>
<path d="M15.1369 83.8242C14.2878 83.8242 13.5996 84.5124 13.5996 85.3615C13.5996 86.2107 14.2878 86.8989 15.1369 86.8989H38.1994C39.0486 86.8989 39.7368 86.2107 39.7368 85.3615C39.7368 84.5124 39.0486 83.8242 38.1994 83.8242H15.1369Z" fill="#4A9231"/>
<path d="M50.5 86.9003H76.6367C77.0441 86.9003 77.4355 86.7386 77.7239 86.4502C78.0123 86.1618 78.174 85.7712 78.174 85.363V65.3747C78.174 64.5256 77.4859 63.8374 76.6367 63.8374C75.7876 63.8374 75.0986 64.5256 75.0986 65.3747V83.8249H50.499C49.6499 83.8249 48.9609 84.5131 48.9609 85.3622C48.9609 86.2114 49.6499 86.8996 50.499 86.8996L50.5 86.9003Z" fill="#4A9231"/>
<path d="M69.4003 70.4375L64.3374 75.5003L60.0436 71.2058L60.0429 71.2066C59.7552 70.9182 59.3638 70.7557 58.9557 70.7557C58.5483 70.7557 58.1569 70.9182 57.8685 71.2066L52.4874 76.5876C51.887 77.1881 51.887 78.1616 52.4874 78.762C53.0879 79.3625 54.0614 79.3625 54.6618 78.762L58.9556 74.4675L63.2493 78.762H63.2501C63.5385 79.0504 63.9291 79.2122 64.3373 79.2122C64.7447 79.2122 65.1361 79.0504 65.4245 78.762L71.5745 72.612C72.1749 72.0116 72.1749 71.0381 71.5745 70.4376C70.9741 69.8372 70.0005 69.8372 69.4001 70.4376L69.4003 70.4375Z" fill="#4A9231"/>
</svg>
