<svg width="101" height="100" viewBox="0 0 101 100" fill="none" xmlns="http://www.w3.org/2000/svg">
<mask id="mask0_553_1043" style="mask-type:luminance" maskUnits="userSpaceOnUse" x="1" y="14" width="99" height="72">
<path d="M1.29883 14.4531H99.6992V85.5469H1.29883V14.4531Z" fill="white"/>
</mask>
<g mask="url(#mask0_553_1043)">
<path d="M92.0115 14.6367H8.98613C4.74726 14.6367 1.29883 18.0852 1.29883 22.324V77.6736C1.29883 81.9125 4.74726 85.3609 8.98613 85.3609H92.0115C96.2504 85.3609 99.6988 81.9125 99.6988 77.6736V22.324C99.6988 18.0852 96.2504 14.6367 92.0115 14.6367ZM8.98613 17.7121H92.0115C94.5545 17.7121 96.6242 19.782 96.6242 22.3248V26.9375L4.37422 26.9367V22.324C4.37422 19.7811 6.44414 17.7121 8.98691 17.7121L8.98613 17.7121ZM11.4244 66.9113L4.37324 73.9625V69.0529L8.98301 64.4699L11.4244 66.9113ZM92.0123 82.2869H8.98691C6.64082 82.2869 4.72051 80.5199 4.43301 78.2525L13.5998 69.0857C14.7991 67.8864 14.7991 65.9371 13.5998 64.7377L13.4678 64.6049L15.0852 62.9875C18.0202 65.4342 21.7899 66.9114 25.8999 66.9114C32.4557 66.9114 38.1397 63.1539 40.9458 57.6867H87.3989C89.0949 57.6867 90.4735 56.3073 90.4735 54.6121V45.3875C90.4735 43.6915 89.0941 42.3129 87.4005 42.3129L40.9454 42.3114C38.1393 36.8442 32.4569 33.0868 25.8995 33.0868C16.5741 33.0868 8.98661 40.6743 8.98661 49.9997C8.98661 54.1096 10.4644 57.8794 12.9104 60.8143L11.293 62.4317L11.158 62.2967C9.96168 61.1004 8.01539 61.0989 6.81617 62.2906L4.37399 64.7175V30.0125H96.624V77.6746C96.6247 80.2175 94.5548 82.2873 92.0121 82.2873L92.0123 82.2869ZM87.3996 45.3865V54.6111H76.6369V45.3865H87.3996ZM73.5621 54.6111H42.1578C42.5744 53.1432 42.8124 51.599 42.8124 49.9992C42.8124 48.3986 42.5744 46.8551 42.1578 45.3865H73.5621V54.6111ZM39.7379 49.9992C39.7379 57.6285 33.5291 63.8367 25.9004 63.8367C18.2711 63.8367 12.0629 57.6279 12.0629 49.9992C12.0629 42.3699 18.2717 36.1617 25.9004 36.1617C33.5291 36.161 39.7379 42.3697 39.7379 49.9992Z" fill="#4A9231"/>
</g>
<path d="M47.424 51.5371H68.9494C69.7978 51.5371 70.4868 50.8482 70.4868 49.9998C70.4868 49.1514 69.7978 48.4625 68.9494 48.4625L47.424 48.4617C46.5756 48.4617 45.8867 49.1506 45.8867 49.999C45.8867 50.8482 46.5756 51.5371 47.424 51.5371Z" fill="#4A9231"/>
<path d="M25.9004 39.2363C19.9654 39.2363 15.1377 44.0643 15.1377 49.999C15.1377 55.9338 19.9656 60.7617 25.9004 60.7617C31.8352 60.7617 36.6631 55.9338 36.6631 49.999C36.6623 44.0641 31.8352 39.2363 25.9004 39.2363ZM25.9004 57.6865C21.6615 57.6865 18.2131 54.2381 18.2131 49.9992C18.2131 45.7603 21.6615 42.3119 25.9004 42.3119C30.1393 42.3119 33.5877 45.7603 33.5877 49.9992C33.5877 54.2381 30.1393 57.6865 25.9004 57.6865Z" fill="#4A9231"/>
<path d="M42.8127 66.9121H58.1875C59.0359 66.9121 59.7248 66.2232 59.7248 65.3748C59.7248 64.5264 59.0359 63.8375 58.1875 63.8375H42.8127C41.9643 63.8375 41.2754 64.5264 41.2754 65.3748C41.2754 66.2232 41.9643 66.9121 42.8127 66.9121Z" fill="#4A9231"/>
<path d="M64.3381 69.9883H36.6623C35.8139 69.9883 35.125 70.6772 35.125 71.5256C35.125 72.374 35.8139 73.0629 36.6623 73.0629H64.3381C65.1865 73.0629 65.8754 72.374 65.8754 71.5256C65.8762 70.6772 65.1873 69.9883 64.3389 69.9883H64.3381Z" fill="#4A9231"/>
<path d="M16.6743 22.3242C16.6743 23.1734 15.9861 23.8623 15.1369 23.8623C14.2878 23.8623 13.5996 23.1734 13.5996 22.3242C13.5996 21.4751 14.2878 20.7869 15.1369 20.7869C15.9861 20.7869 16.6743 21.4751 16.6743 22.3242Z" fill="#4A9231"/>
<path d="M10.5239 22.3242C10.5239 23.1734 9.8357 23.8623 8.98654 23.8623C8.13738 23.8623 7.44922 23.1734 7.44922 22.3242C7.44922 21.4751 8.13738 20.7869 8.98654 20.7869C9.8357 20.7869 10.5239 21.4751 10.5239 22.3242Z" fill="#4A9231"/>
<path d="M22.8246 22.3242C22.8246 23.1734 22.1365 23.8623 21.2873 23.8623C20.4382 23.8623 19.75 23.1734 19.75 22.3242C19.75 21.4751 20.4382 20.7869 21.2873 20.7869C22.1365 20.7869 22.8246 21.4751 22.8246 22.3242Z" fill="#4A9231"/>
</svg>
