<svg width="101" height="100" viewBox="0 0 101 100" fill="none" xmlns="http://www.w3.org/2000/svg">
<path d="M75.5551 53.1387C75.5917 52.7023 75.6161 52.2621 75.6161 51.8081V22.8257C75.6161 21.9193 74.8822 21.1854 73.9758 21.1854C69.0655 21.1854 65.07 17.1891 65.07 12.2787C65.07 11.3724 64.336 10.6384 63.4296 10.6384L23.9336 10.6392C23.0279 10.6392 22.2932 11.3724 22.2932 12.2795C22.2932 17.1899 18.2985 21.1861 13.3874 21.1861C12.4818 21.1861 11.7471 21.9193 11.7471 22.8265V51.8089C11.7471 69.3909 41.7412 83.0061 43.0186 83.5784C43.2314 83.673 43.4595 83.7211 43.6877 83.7211C43.9173 83.7196 44.1446 83.6715 44.3575 83.5769C44.5498 83.4914 48.714 81.6185 53.9858 78.3958C56.8583 84.8464 63.3173 89.3609 70.8216 89.3609C80.9847 89.3609 89.2519 81.0937 89.2519 70.9314C89.2519 62.4064 83.4276 55.2363 75.5548 53.1396L75.5551 53.1387ZM43.6918 80.2695C39.3186 78.1828 15.0297 65.95 15.0297 51.8086L15.0289 24.3555C20.4389 23.6253 24.7336 19.3301 25.4653 13.9199H61.9008C62.6317 19.3299 66.9262 23.6252 72.3364 24.3555V51.8066C72.3364 52.0691 72.3165 52.3201 72.3013 52.5734C71.8122 52.5345 71.3217 52.4986 70.8227 52.4986C70.371 52.4986 69.9285 52.5345 69.4853 52.5665C69.5059 52.3132 69.5471 52.0538 69.5471 51.8067V27.7403C69.5471 27.0658 69.1343 26.4608 68.5079 26.2136C64.6429 24.6938 61.556 21.6122 60.0415 17.7619C59.7951 17.134 59.1893 16.7227 58.5149 16.7227H43.7176C43.7062 16.7227 43.697 16.7166 43.6856 16.7166C43.6741 16.7166 43.665 16.7227 43.6535 16.7227H28.8494C28.175 16.7227 27.57 17.134 27.3228 17.7619C25.8076 21.6117 22.7214 24.6931 18.8564 26.2136C18.2293 26.46 17.8173 27.0658 17.8173 27.7403V51.8067C17.8173 63.9365 40.3837 75.5527 42.9559 76.8379C42.9704 76.8448 42.9872 76.8417 43.0017 76.8486C43.1909 76.9363 43.3984 76.9852 43.6189 76.9943C43.6426 76.9951 43.6647 77.0111 43.6891 77.0111C43.728 77.0111 43.7639 76.9867 43.8028 76.9844C44.0019 76.9691 44.1927 76.931 44.3659 76.8509C44.3849 76.8425 44.4063 76.8463 44.4254 76.8371C47.1613 75.4639 49.8926 73.9036 52.4592 72.2549C52.5316 73.262 52.6834 74.2454 52.9123 75.2022C48.7436 77.7909 45.1319 79.5838 43.6907 80.2688L43.6918 80.2695ZM52.6174 68.2045C49.9555 70.0264 47.4233 71.5233 45.326 72.6615V48.5014H66.2674V51.8088C66.2674 52.2276 66.2056 52.6747 66.1141 53.1333C59.0873 54.9948 53.7078 60.8993 52.6176 68.2051L52.6174 68.2045ZM21.0979 51.8082V48.5008H42.0471V72.6629C31.5506 66.992 21.0979 58.4828 21.0979 51.8074V51.8082ZM57.4358 20.0035C59.2454 23.8717 62.3879 27.0072 66.2668 28.8201V45.2203H45.3254V20.0035H57.4358ZM42.0457 45.2203H21.0965V28.8201C24.9752 27.0074 28.1178 23.8709 29.9276 20.0035H42.0453L42.0457 45.2203ZM70.8231 86.0797C62.4696 86.0797 55.6735 79.2842 55.6735 70.9309C55.6735 62.5775 62.4697 55.7805 70.8231 55.7805C79.1764 55.7805 85.9727 62.5775 85.9727 70.9309C85.9734 79.2844 79.1772 86.0797 70.8231 86.0797Z" fill="#4A9231"/>
<path d="M76.1308 65.1973L68.1435 73.1846L65.5129 70.5532C64.872 69.9123 63.8344 69.9123 63.1935 70.5532C62.5527 71.194 62.5527 72.2317 63.1935 72.8725L66.9838 76.6635C67.2912 76.971 67.7086 77.1442 68.1434 77.1442C68.5783 77.1442 68.9956 76.971 69.3031 76.6635L78.45 67.5167C79.0908 66.8758 79.0908 65.8382 78.45 65.1973C77.8091 64.5565 76.7717 64.5565 76.1308 65.1973Z" fill="#4A9231"/>
</svg>
