<svg width="101" height="100" viewBox="0 0 101 100" fill="none" xmlns="http://www.w3.org/2000/svg">
<path d="M33.5875 45.3867C30.1955 45.3867 27.4375 42.6287 27.4375 39.2367C27.4375 35.8447 30.1955 33.0867 33.5875 33.0867C36.9795 33.0867 39.7375 35.8447 39.7375 39.2367C39.7375 42.6287 36.9795 45.3867 33.5875 45.3867ZM33.5875 36.1621C31.8915 36.1621 30.5129 37.5415 30.5129 39.2367C30.5129 40.9327 31.8923 42.3113 33.5875 42.3113C35.2835 42.3113 36.6621 40.9319 36.6621 39.2367C36.6621 37.5407 35.2827 36.1621 33.5875 36.1621Z" fill="#4A9231"/>
<path d="M48.9605 45.3867C45.5686 45.3867 42.8105 42.6287 42.8105 39.2367C42.8105 35.8447 45.5686 33.0867 48.9605 33.0867C52.3525 33.0867 55.1106 35.8447 55.1106 39.2367C55.1106 42.6287 52.3525 45.3867 48.9605 45.3867ZM48.9605 36.1621C47.2645 36.1621 45.8859 37.5415 45.8859 39.2367C45.8859 40.9327 47.2653 42.3113 48.9605 42.3113C50.6566 42.3113 52.0352 40.9319 52.0352 39.2367C52.0352 37.5407 50.6558 36.1621 48.9605 36.1621Z" fill="#4A9231"/>
<path d="M64.3375 45.3867C60.9455 45.3867 58.1875 42.6287 58.1875 39.2367C58.1875 35.8447 60.9455 33.0867 64.3375 33.0867C67.7295 33.0867 70.4875 35.8447 70.4875 39.2367C70.4875 42.6287 67.7295 45.3867 64.3375 45.3867ZM64.3375 36.1621C62.6415 36.1621 61.2629 37.5415 61.2629 39.2367C61.2629 40.9327 62.6423 42.3113 64.3375 42.3113C66.0335 42.3113 67.4121 40.9319 67.4121 39.2367C67.4121 37.5407 66.0327 36.1621 64.3375 36.1621Z" fill="#4A9231"/>
<path d="M18.2125 60.7617C14.8205 60.7617 12.0625 58.0037 12.0625 54.6117C12.0625 51.2197 14.8205 48.4617 18.2125 48.4617C21.6045 48.4617 24.3625 51.2197 24.3625 54.6117C24.3625 58.0037 21.6045 60.7617 18.2125 60.7617ZM18.2125 51.5371C16.5165 51.5371 15.1379 52.9165 15.1379 54.6117C15.1379 56.3077 16.5173 57.6863 18.2125 57.6863C19.9085 57.6863 21.2871 56.3069 21.2871 54.6117C21.2871 52.9157 19.9077 51.5371 18.2125 51.5371Z" fill="#4A9231"/>
<path d="M33.5875 60.7617C30.1955 60.7617 27.4375 58.0037 27.4375 54.6117C27.4375 51.2197 30.1955 48.4617 33.5875 48.4617C36.9795 48.4617 39.7375 51.2197 39.7375 54.6117C39.7375 58.0037 36.9795 60.7617 33.5875 60.7617ZM33.5875 51.5371C31.8915 51.5371 30.5129 52.9165 30.5129 54.6117C30.5129 56.3077 31.8923 57.6863 33.5875 57.6863C35.2835 57.6863 36.6621 56.3069 36.6621 54.6117C36.6621 52.9157 35.2827 51.5371 33.5875 51.5371Z" fill="#4A9231"/>
<path d="M48.9605 60.7617C45.5686 60.7617 42.8105 58.0037 42.8105 54.6117C42.8105 51.2197 45.5686 48.4617 48.9605 48.4617C52.3525 48.4617 55.1106 51.2197 55.1106 54.6117C55.1106 58.0037 52.3525 60.7617 48.9605 60.7617ZM48.9605 51.5371C47.2645 51.5371 45.8859 52.9165 45.8859 54.6117C45.8859 56.3077 47.2653 57.6863 48.9605 57.6863C50.6566 57.6863 52.0352 56.3069 52.0352 54.6117C52.0352 52.9157 50.6558 51.5371 48.9605 51.5371Z" fill="#4A9231"/>
<path d="M64.3375 60.7617C60.9455 60.7617 58.1875 58.0037 58.1875 54.6117C58.1875 51.2197 60.9455 48.4617 64.3375 48.4617C67.7295 48.4617 70.4875 51.2197 70.4875 54.6117C70.4875 58.0037 67.7295 60.7617 64.3375 60.7617ZM64.3375 51.5371C62.6415 51.5371 61.2629 52.9165 61.2629 54.6117C61.2629 56.3077 62.6423 57.6863 64.3375 57.6863C66.0335 57.6863 67.4121 56.3069 67.4121 54.6117C67.4121 52.9157 66.0327 51.5371 64.3375 51.5371Z" fill="#4A9231"/>
<path d="M18.2125 76.1367C14.8205 76.1367 12.0625 73.3787 12.0625 69.9867C12.0625 66.5947 14.8205 63.8367 18.2125 63.8367C21.6045 63.8367 24.3625 66.5947 24.3625 69.9867C24.3625 73.3787 21.6045 76.1367 18.2125 76.1367ZM18.2125 66.9121C16.5165 66.9121 15.1379 68.2915 15.1379 69.9867C15.1379 71.6827 16.5173 73.0613 18.2125 73.0613C19.9085 73.0613 21.2871 71.6819 21.2871 69.9867C21.2871 68.2907 19.9077 66.9121 18.2125 66.9121Z" fill="#4A9231"/>
<path d="M33.5875 76.1367C30.1955 76.1367 27.4375 73.3787 27.4375 69.9867C27.4375 66.5947 30.1955 63.8367 33.5875 63.8367C36.9795 63.8367 39.7375 66.5947 39.7375 69.9867C39.7375 73.3787 36.9795 76.1367 33.5875 76.1367ZM33.5875 66.9121C31.8915 66.9121 30.5129 68.2915 30.5129 69.9867C30.5129 71.6827 31.8923 73.0613 33.5875 73.0613C35.2835 73.0613 36.6621 71.6819 36.6621 69.9867C36.6621 68.2907 35.2827 66.9121 33.5875 66.9121Z" fill="#4A9231"/>
<path d="M48.9605 76.1367C45.5686 76.1367 42.8105 73.3787 42.8105 69.9867C42.8105 66.5947 45.5686 63.8367 48.9605 63.8367C52.3525 63.8367 55.1106 66.5947 55.1106 69.9867C55.1106 73.3787 52.3525 76.1367 48.9605 76.1367ZM48.9605 66.9121C47.2645 66.9121 45.8859 68.2915 45.8859 69.9867C45.8859 71.6827 47.2653 73.0613 48.9605 73.0613C50.6566 73.0613 52.0352 71.6819 52.0352 69.9867C52.0352 68.2907 50.6558 66.9121 48.9605 66.9121Z" fill="#4A9231"/>
<path d="M30.5117 14.6367H55.1113V17.7113C55.1113 20.2543 57.1812 22.324 59.724 22.324H62.7986C65.3416 22.324 67.4113 20.2541 67.4113 17.7113L67.4106 8.48672C67.4106 5.94375 65.3406 3.87402 62.7979 3.87402H59.7233C57.1803 3.87402 55.1106 5.94394 55.1106 8.48672V11.5613L30.511 11.5621C29.6626 11.5621 28.9736 12.2495 28.9736 13.0994C28.9736 13.9493 29.6626 14.6367 30.511 14.6367L30.5117 14.6367ZM58.1875 8.48672C58.1875 7.63832 58.878 6.94939 59.7248 6.94939H62.7994C63.6463 6.94939 64.3368 7.63832 64.3368 8.48672V17.7113C64.3368 18.5597 63.6463 19.2487 62.7994 19.2487H59.7248C58.878 19.2487 58.1875 18.5597 58.1875 17.7113V8.48672Z" fill="#4A9231"/>
<mask id="mask0_553_2072" style="mask-type:luminance" maskUnits="userSpaceOnUse" x="1" y="3" width="76" height="84">
<path d="M1.29883 3.71094H76.6719V86.9141H1.29883V3.71094Z" fill="white"/>
</mask>
<g mask="url(#mask0_553_2072)">
<path d="M75.1 25.4004H4.37539V19.2504C4.37539 16.7074 6.44531 14.6377 8.98808 14.6377H15.1381V17.7123C15.1381 20.2553 17.208 22.325 19.7508 22.325H22.8254C25.3684 22.325 27.4381 20.2551 27.4381 17.7123V8.4877C27.4381 5.94473 25.3682 3.875 22.8254 3.875H19.7508C17.2078 3.875 15.1381 5.94492 15.1381 8.4877V11.5623L8.98808 11.5631C4.74922 11.5631 1.30078 15.0115 1.30078 19.2504V79.2133C1.30078 83.4521 4.74922 86.9006 8.98808 86.9006H62.8006C63.649 86.9006 64.3379 86.2132 64.3379 85.3632C64.3379 84.5133 63.649 83.8259 62.8006 83.8259H8.98808C6.44512 83.8259 4.37539 81.756 4.37539 79.2132V28.4749H75.1C75.9484 28.4749 76.6373 27.7875 76.6373 26.9376C76.6373 26.0877 75.9484 25.4004 75.1 25.4004ZM18.2133 8.4875C18.2133 7.6391 18.9037 6.95018 19.7506 6.95018H22.8252C23.6721 6.95018 24.3625 7.6391 24.3625 8.4875V17.7121C24.3625 18.5605 23.6721 19.2494 22.8252 19.2494H19.7506C18.9037 19.2494 18.2133 18.5605 18.2133 17.7121V8.4875Z" fill="#4A9231"/>
</g>
<path d="M73.5621 11.5625H70.4875C69.6391 11.5625 68.9502 12.2499 68.9502 13.0998C68.9502 13.9497 69.6391 14.6371 70.4875 14.6371H73.5621C76.1051 14.6371 78.1748 16.7071 78.1748 19.2498V59.2245C78.1748 60.0744 78.8638 60.7618 79.7122 60.7618C80.5605 60.7618 81.2495 60.0744 81.2495 59.2245V19.2498C81.2495 15.011 77.801 11.5625 73.5621 11.5625Z" fill="#4A9231"/>
<mask id="mask1_553_2072" style="mask-type:luminance" maskUnits="userSpaceOnUse" x="65" y="62" width="35" height="35">
<path d="M65.7344 62.1094H99.6992V96.2891H65.7344V62.1094Z" fill="white"/>
</mask>
<g mask="url(#mask1_553_2072)">
<path d="M82.7869 96.125C73.4623 96.125 65.874 88.5375 65.874 79.2121C65.874 69.8875 73.4615 62.2992 82.7869 62.2992C92.1115 62.2992 99.6998 69.8867 99.6998 79.2121C99.6998 88.5367 92.1123 96.125 82.7869 96.125ZM82.7869 65.375C75.1576 65.375 68.9494 71.5822 68.9494 79.2125C68.9494 86.8433 75.1582 93.05 82.7869 93.05C90.4162 93.05 96.6244 86.8428 96.6244 79.2125C96.6244 71.5816 90.4156 65.375 82.7869 65.375Z" fill="#4A9231"/>
</g>
<path d="M88.9379 77.6758H84.3253V73.0631C84.3253 72.2132 83.6363 71.5258 82.7879 71.5258C81.9395 71.5258 81.2506 72.2132 81.2506 73.0631V77.6758H76.6379C75.7895 77.6758 75.1006 78.3632 75.1006 79.2131C75.1006 80.063 75.7895 80.7504 76.6379 80.7504H81.2506V85.3631C81.2506 86.213 81.9395 86.9004 82.7879 86.9004C83.6363 86.9004 84.3253 86.213 84.3253 85.3631V80.7504H88.9379C89.7863 80.7504 90.4753 80.063 90.4753 79.2131C90.4753 78.3632 89.7863 77.6758 88.9379 77.6758Z" fill="#4A9231"/>
</svg>
