<svg width="101" height="100" viewBox="0 0 101 100" fill="none" xmlns="http://www.w3.org/2000/svg">
<mask id="mask0_553_1942" style="mask-type:luminance" maskUnits="userSpaceOnUse" x="1" y="0" width="99" height="100">
<path d="M1.29883 0.798828H99.6992V99.1992H1.29883V0.798828Z" fill="white"/>
</mask>
<g mask="url(#mask0_553_1942)">
<path d="M93.5485 0.798828H7.44891C5.8185 0.800354 4.25516 1.44885 3.10242 2.60242C1.94887 3.75522 1.30035 5.31844 1.29883 6.94891V80.7497C1.30035 82.3809 1.94885 83.944 3.10242 85.097C4.25522 86.2497 5.81844 86.8983 7.44891 86.8998H11.5489V95.0998H5.39891C4.2667 95.0998 3.34891 96.0176 3.34891 97.1498C3.34891 98.282 4.26672 99.1998 5.39891 99.1998H95.5981C96.7303 99.1998 97.6481 98.282 97.6481 97.1498C97.6481 96.0176 96.7303 95.0998 95.5981 95.0998H89.4481V86.8998H93.5481C95.1785 86.8983 96.7419 86.2498 97.8954 85.097C99.0482 83.9442 99.6967 82.3809 99.6982 80.7497V6.94891C99.6967 5.3185 99.0482 3.75516 97.8954 2.60242C96.7418 1.44887 95.1786 0.800352 93.5481 0.798828H93.5485ZM5.39813 6.94883C5.39965 5.81738 6.3167 4.90039 7.44813 4.89883H93.5477C94.6792 4.90035 95.5962 5.8174 95.5977 6.94883V17.1988H5.39852L5.39813 6.94883ZM15.6481 64.3492H27.9483V95.0992H15.6481V64.3492ZM68.9469 95.0992H60.7477V86.8992H68.9477L68.9469 95.0992ZM56.6468 95.0992H44.3473V74.5992H56.6475L56.6468 95.0992ZM40.2466 95.0992H32.0473V86.8992H40.2473L40.2466 95.0992ZM73.0473 95.0992V54.0992H85.3475V95.0992H73.0473ZM95.5981 80.749C95.5966 81.8812 94.6795 82.7975 93.5481 82.799H89.4481V52.049C89.4481 51.505 89.2322 50.984 88.8477 50.5994C88.4632 50.2149 87.9421 49.999 87.3981 49.999H70.9979C69.8657 49.999 68.9479 50.9168 68.9479 52.049V82.799H60.7487V72.549C60.7487 72.0058 60.532 71.4839 60.1483 71.0994C59.7637 70.7157 59.2419 70.499 58.6987 70.499H42.2985C41.1663 70.499 40.2485 71.4168 40.2485 72.549V82.799H32.0485V62.299C32.0485 61.755 31.8326 61.2332 31.448 60.8494C31.0635 60.4649 30.5417 60.249 29.9985 60.249H13.5983C12.4661 60.249 11.5483 61.1668 11.5483 62.299V82.799H7.44826C6.31682 82.7974 5.39982 81.8812 5.39826 80.749V21.2997H95.5975L95.5981 80.749ZM13.5981 11.0498C13.5981 11.8791 13.0984 12.626 12.3324 12.9434C11.5664 13.2608 10.6845 13.0853 10.0984 12.4994C9.51172 11.9127 9.33701 11.0315 9.65363 10.2654C9.97101 9.49941 10.7187 8.99969 11.548 8.99969C12.092 8.99969 12.6131 9.21561 12.9976 9.60012C13.3821 9.98463 13.5981 10.5058 13.5981 11.0498ZM21.7981 11.0498C21.7981 11.8791 21.2984 12.626 20.5324 12.9434C19.7664 13.2608 18.8845 13.0853 18.2984 12.4994C17.7117 11.9127 17.537 11.0315 17.8536 10.2654C18.171 9.49941 18.9187 8.99969 19.748 8.99969C20.2912 8.99969 20.8131 9.21561 21.1976 9.60012C21.5821 9.98463 21.7981 10.5058 21.7981 11.0498ZM29.9981 11.0498C29.9981 11.8791 29.4984 12.626 28.7324 12.9434C27.9664 13.2608 27.0845 13.0853 26.4984 12.4994C25.9117 11.9127 25.7363 11.0315 26.0536 10.2654C26.371 9.49932 27.1187 8.99969 27.948 8.99969C28.4912 8.99969 29.0131 9.21561 29.3976 9.60012C29.7821 9.98463 29.9981 10.5058 29.9981 11.0498ZM91.4981 11.0498C91.4981 11.5938 91.2822 12.1149 90.8977 12.4994C90.5132 12.8839 89.9921 13.0998 89.4481 13.0998H66.8973C65.7659 13.0998 64.8481 12.182 64.8481 11.0498C64.8481 9.91764 65.7659 8.99983 66.8973 8.99983H89.4481C89.9921 8.99983 90.5132 9.21574 90.8977 9.60026C91.2822 9.98477 91.4981 10.5058 91.4981 11.0498ZM21.7989 56.1494C24.5165 56.1479 27.0579 54.799 28.5815 52.5482L42.3723 57.4738C42.3502 57.7172 42.2991 57.9507 42.2991 58.1994C42.2991 61.1283 43.8616 63.8359 46.3991 65.3007C48.9358 66.7648 52.0616 66.7648 54.5991 65.3007C57.1358 63.8359 58.6991 61.1283 58.6991 58.1994C58.6915 56.9505 58.3947 55.7199 57.8332 54.6052L74.5209 40.317C76.7646 41.9176 79.6509 42.3158 82.2449 41.3828C84.8388 40.4497 86.8095 38.3035 87.5191 35.6394C88.2286 32.9759 87.587 30.1339 85.8009 28.0338C84.0157 25.9341 81.3132 24.8431 78.5705 25.1156C75.8269 25.3879 73.3924 26.9886 72.0543 29.398C70.7161 31.8082 70.6451 34.7211 71.8643 37.1937L55.1766 51.4812C53.3829 50.2216 51.1575 49.7371 49.0014 50.1354C46.8461 50.5337 44.9411 51.7826 43.7159 53.5998L29.9258 48.6743C29.9472 48.4316 29.9991 48.1974 29.9991 47.9495C29.9991 45.7743 29.1347 43.6885 27.5973 42.151C26.0592 40.6129 23.9733 39.7493 21.7989 39.7493C19.6237 39.7493 17.5387 40.6129 16.0004 42.151C14.4624 43.6884 13.5987 45.7743 13.5987 47.9495C13.5987 50.1239 14.4623 52.2096 16.0004 53.7479C17.5385 55.2852 19.6237 56.1497 21.7989 56.1497L21.7989 56.1494ZM79.1993 29.499C80.2872 29.499 81.3301 29.9308 82.0985 30.6999C82.8676 31.4689 83.2994 32.5111 83.2994 33.5991C83.2994 34.6863 82.8676 35.7292 82.0985 36.4983C81.3302 37.2674 80.2873 37.6992 79.1993 37.6992C78.1121 37.6992 77.0692 37.2674 76.3001 36.4983C75.5318 35.7293 75.0992 34.6863 75.0992 33.5991C75.1007 32.5119 75.5326 31.4698 76.3016 30.7007C77.0706 29.9324 78.1128 29.4998 79.1993 29.499ZM50.5001 54.0986C51.5873 54.0986 52.6302 54.5304 53.3993 55.2995C54.1676 56.0678 54.6001 57.1107 54.6001 58.1987C54.6001 59.2859 54.1676 60.3288 53.3993 61.0979C52.6302 61.8662 51.5873 62.2988 50.5001 62.2988C49.4121 62.2988 48.3692 61.8662 47.6009 61.0979C46.8318 60.3289 46.4 59.286 46.4 58.1987C46.4008 57.1115 46.8334 56.0694 47.6016 55.3003C48.3707 54.532 49.4129 54.0994 50.5001 54.0986ZM21.7989 43.8486C22.8861 43.8494 23.9282 44.282 24.6966 45.0503C25.4656 45.8193 25.8974 46.8615 25.8989 47.9487C25.8928 48.3637 25.8234 48.7757 25.6922 49.1702C25.6693 49.2205 25.6273 49.2556 25.6083 49.309C25.5922 49.3868 25.5808 49.4669 25.5739 49.5463C25.1871 50.461 24.4814 51.2034 23.588 51.6367C22.6946 52.0701 21.6745 52.1647 20.7171 51.903C19.7596 51.6405 18.9295 51.0401 18.381 50.2123C17.8324 49.3853 17.6028 48.3866 17.7355 47.4024C17.8675 46.4182 18.352 45.5156 19.0997 44.8625C19.8466 44.2087 20.8064 43.8486 21.7989 43.8486Z" fill="#4A9231"/>
</g>
</svg>
